<svg xmlns="http://www.w3.org/2000/svg" width="33" height="33" viewBox="0 0 33 33">
    <g fill="none" fill-rule="evenodd">
        <g>
            <g>
                <path fill="#E44634" d="M6.44 15.026v13.599h5.41v-10.02h8.289v10.02h5.42V15.026h1.434v15.03h-8.288v-10.02h-5.42v10.02H5.006v-15.03H6.44zM16.246 1.68l14.802 12.805c.3.259.331.711.072 1.01-.26.299-.712.331-1.011.072L16.232 3.56 1.882 15.575c-.134.112-.298.167-.46.167-.205 0-.408-.087-.55-.256-.254-.303-.214-.754.09-1.008L16.245 1.68zm10.747 2.133v4.533c0 .395-.32.716-.716.716-.396 0-.717-.32-.717-.716V5.244h-3.585c-.396 0-.717-.32-.717-.715 0-.396.321-.716.717-.716h5.018z" transform="translate(-362 -561) translate(362 561.9)"/>
            </g>
        </g>
    </g>
</svg>
