<svg xmlns="http://www.w3.org/2000/svg" width="33" height="33" viewBox="0 0 33 33">
    <g fill="none" fill-rule="evenodd">
        <g>
            <g>
                <g>
                    <path fill="#E44634" fill-rule="nonzero" d="M18.49 2.653c.354 0 .647.263.693.605l.007.095v8.341c0 .355-.264.648-.605.694l-.095.006h-4.88c-.354 0-.647-.263-.693-.605l-.007-.095v-1.202l1.4-.147v.649h3.479V4.052H14.31v4.506c0 .355-.263.648-.605.694l-.095.006H4.003v15.349h23.993V9.258h-7.97v-1.4h8.67c.354 0 .647.264.694.605l.006.095v16.75c0 .354-.263.647-.605.693l-.095.006H3.304c-.354 0-.647-.263-.694-.605l-.006-.095V8.558c0-.354.263-.647.605-.693l.095-.007h9.606V3.353c0-.355.264-.648.605-.694l.095-.006h4.88zm-8.367 10.044c1.897 0 3.434 1.537 3.434 3.434 0 1.125-.54 2.123-1.375 2.75 1.784.769 3.051 2.51 3.136 4.555l.005.22h-1.4c0-2.099-1.702-3.8-3.8-3.8-2.033 0-3.694 1.596-3.795 3.604l-.005.196h-1.4c0-2.14 1.293-3.98 3.14-4.777-.835-.626-1.375-1.624-1.375-2.748 0-1.897 1.538-3.434 3.435-3.434zm16.244 5.78v1.4h-7.955v-1.4h7.955zm-16.244-4.38c-1.124 0-2.035.91-2.035 2.034 0 1.124.911 2.035 2.035 2.035 1.123 0 2.034-.911 2.034-2.035 0-1.123-.91-2.034-2.034-2.034zm16.244 1.334v1.4h-7.955v-1.4h7.955z" transform="translate(-362 -904) translate(362 884.4) translate(0 20.2)"/>
                </g>
            </g>
        </g>
    </g>
</svg>
