<svg xmlns="http://www.w3.org/2000/svg" width="33" height="33" viewBox="0 0 33 33">
    <g fill="none" fill-rule="evenodd">
        <g>
            <g>
                <path d="M0 0H32V32H0z" transform="translate(-362 -372) translate(362 372.9)"/>
                <path fill="#E44634" d="M9.807 16.633L8.441 4.913H3.385L.228 31.987h31.583V17.122l-5.821 1.26v-2.63l-7.943 1.757V14.4l-8.24 2.233zm.242 12.439l.2 1.714H1.577l.2-1.714h8.273zm6.798-13.103v14.817h-5.39l-1.51-12.948 6.9-1.87zm7.916 1.283v13.534h-6.716V18.733l6.716-1.48zm5.848 1.357v3.307H27.88v1.2h2.731v.81H27.88v1.2h2.731v.81l-2.731.001v1.2h2.731v3.647l-4.648.002v-11.17l4.648-1.007zM8.388 14.831L9.91 27.87H1.916l1.521-13.04h4.951zm14.83 9.627h-1.19v1.2h1.19v-1.2zm-2.339 0h-1.19v1.2h1.19v-1.2zm-5.41-1.131h-1.19v1.2h1.19v-1.2zm-2.338 0h-1.19v1.2h1.19v-1.2zm10.086-.88h-1.19v1.2h1.19v-1.2zm-2.338 0h-1.19v1.2h1.19v-1.2zm-5.41-1.131h-1.19v1.2h1.19v-1.2zm-2.338 0h-1.19v1.2h1.19v-1.2zm10.086-.879h-1.19v1.2h1.19v-1.2zm-2.338 0h-1.19v1.2h1.19v-1.2zm-5.41-1.132h-1.19v1.2h1.19v-1.2zm-2.338 0h-1.19v1.2h1.19v-1.2zm-4.998-6.67l.116.996H3.576l.116-.996h4.441zm-.76-6.521l.62 5.32h-4.16l.62-5.32h2.92zM15.74 1.41C17.932.083 20.085.036 21.97.759c.449.172.777.348.967.475l-.668.997c-.119-.08-.37-.214-.729-.352-1.562-.6-3.332-.56-5.176.558-2.152 1.305-3.2 1.569-5.044.88-1.168-.435-2.18-.319-3.033.135-.279.148-.466.292-.55.373L6.9 2.966c.16-.156.437-.367.825-.574 1.139-.606 2.503-.762 4.015-.199 1.421.53 2.133.352 4.002-.782z" transform="translate(-362 -372) translate(362 372.9)"/>
            </g>
        </g>
    </g>
</svg>
