<svg xmlns="http://www.w3.org/2000/svg" width="33" height="33" viewBox="0 0 33 33">
    <g fill="none" fill-rule="evenodd">
        <g>
            <g>
                <g>
                    <path fill="#E44634" d="M24.91 2.127c.484-.184 1.02-.168 1.503.048.462.207.82.576 1.014 1.04l.04.101 4.406 12.156c.384 1.01-.13 2.155-1.15 2.542l-.05.018-4.793 1.735v9.209c0 1.091-.888 1.98-1.98 1.98H1.98c-1.092 0-1.98-.889-1.98-1.98V16.189c0-1.092.888-1.98 1.98-1.98h1.91l-.75-2.076c-.183-.482-.167-1.019.05-1.502.216-.482.607-.851 1.102-1.039l.05-.018zM23.9 15.73H1.98c-.253 0-.458.205-.458.458v12.787c0 .252.205.457.457.457h21.922c.252 0 .457-.205.457-.457V16.189c0-.253-.205-.458-.457-.458zm-16.913 9.89v1.275H4.059V25.62h2.928zm4.993 0v1.275H9.052V25.62h2.928zm4.993 0v1.275h-2.928V25.62h2.928zm4.993 0v1.275h-2.928V25.62h2.928zm-9.986-3.605v1.522H4.06v-1.522h7.92zm9.986-3.868v1.76h-3.97v-1.76h3.97zm5.289-10.949L8.063 14.21H23.9c1.091 0 1.979.888 1.979 1.98v1.959l4.303-1.558c.238-.096.35-.356.263-.588l-3.191-8.803zM25.79 3.564c-.112-.051-.236-.054-.35-.01L4.826 11.018c-.11.043-.199.128-.248.237-.05.111-.053.235-.01.35l.72 1.997 21.448-7.834-.707-1.95c-.043-.114-.128-.204-.24-.254zm-.318 6.122c.396-.142.832.066.973.462.14.396-.066.832-.462.972l-2.284.812c-.084.03-.17.045-.255.045-.313 0-.606-.195-.717-.507-.14-.396.066-.831.462-.972z" transform="translate(-362 -1113) translate(362 1030.6) translate(0 83.2)"/>
                </g>
            </g>
        </g>
    </g>
</svg>
