<svg xmlns="http://www.w3.org/2000/svg" width="33" height="33" viewBox="0 0 33 33">
    <g fill="none" fill-rule="evenodd">
        <g>
            <g>
                <g>
                    <path fill="#E44634" d="M29.793 18.894c0 .425-.346.771-.772.771H26.9v6.945c0 .426-.346.772-.771.772h-2.894c-.425 0-.771-.346-.771-.772V14.071c0-1.17-.953-2.122-2.123-2.122h-.744c.086-.332.386-.579.744-.579h8.681c.426 0 .772.346.772.772v6.752zm-8.681 1.447v.482c0 .425-.346.772-.772.772h-2.122v6.944c0 .426-.346.772-.771.772h-2.894c-.425 0-.771-.346-.771-.772v-6.944h-2.123c-.425 0-.771-.347-.771-.772V14.07c0-.425.346-.772.771-.772h8.681c.426 0 .772.347.772.772v6.27zM9.537 14.07V26.61c0 .426-.346.772-.772.772H5.872c-.425 0-.771-.346-.771-.772v-6.945H2.978c-.425 0-.771-.346-.771-.771v-6.752c0-.426.346-.772.771-.772h8.681c.359 0 .659.247.744.579h-.744c-1.17 0-2.122.952-2.122 2.122zm19.484-4.051h-8.68c-1.105 0-2.004.85-2.103 1.929h-4.476c-.099-1.079-.999-1.93-2.103-1.93H2.98c-1.17 0-2.123.953-2.123 2.123v6.752c0 1.17.953 2.122 2.122 2.122h.772v5.594c0 1.17.952 2.122 2.122 2.122h2.893c1.17 0 2.123-.952 2.123-2.122v-3.816c.24.094.499.15.771.15h.772v5.595c0 1.17.952 2.122 2.122 2.122h2.894c1.17 0 2.122-.952 2.122-2.122v-5.594h.771c.273 0 .532-.057.772-.15v3.815c0 1.17.952 2.122 2.122 2.122h2.894c1.17 0 2.122-.952 2.122-2.122v-5.594h.771c1.17 0 2.123-.952 2.123-2.122v-6.752c0-1.17-.953-2.122-2.123-2.122zm-4.34-7.331c1.223 0 2.219.995 2.219 2.218 0 1.224-.996 2.219-2.219 2.219-1.223 0-2.218-.995-2.218-2.219 0-1.223.995-2.218 2.218-2.218m0 5.787c1.968 0 3.569-1.6 3.569-3.569 0-1.967-1.601-3.568-3.569-3.568s-3.569 1.6-3.569 3.568c0 1.969 1.601 3.57 3.57 3.57M7.318 2.688c1.223 0 2.218.995 2.218 2.218 0 1.224-.995 2.219-2.218 2.219-1.223 0-2.219-.995-2.219-2.219 0-1.223.996-2.218 2.219-2.218m0 5.787c1.968 0 3.569-1.6 3.569-3.569 0-1.967-1.601-3.568-3.57-3.568-1.967 0-3.568 1.6-3.568 3.568 0 1.969 1.601 3.57 3.569 3.57M16 4.617c1.223 0 2.218.995 2.218 2.219 0 1.223-.995 2.218-2.218 2.218-1.223 0-2.219-.995-2.219-2.218 0-1.224.996-2.219 2.219-2.219m0 5.787c1.968 0 3.569-1.6 3.569-3.568S17.968 3.267 16 3.267s-3.569 1.602-3.569 3.57c0 1.968 1.601 3.568 3.569 3.568" transform="translate(-362 -1050) translate(362 1030.6) translate(0 20.2)"/>
                </g>
            </g>
        </g>
    </g>
</svg>
