<svg xmlns="http://www.w3.org/2000/svg" width="33" height="33" viewBox="0 0 33 33">
    <g fill="none" fill-rule="evenodd">
        <g>
            <g>
                <g>
                    <path d="M0.959 0.582L33.799 0.582 33.799 33.422 0.959 33.422z" transform="translate(-361 -1030) translate(361 1012.4) translate(0 17.2)"/>
                    <path fill="#E44634" d="M8.466 7.581c-.197 0-.386.078-.524.217l-.532.531c-1.393 1.394-1.8 3.656-1.146 6.366.693 2.872 2.476 5.855 5.021 8.4 2.545 2.543 5.528 4.325 8.4 5.02 2.71.654 4.971.247 6.365-1.146l.531-.531c.29-.29.29-.758 0-1.048l-3.052-3.052c-.289-.289-.758-.289-1.047 0l-2.285 2.285c-.281.282-.713.349-1.066.166-1.874-.969-3.762-2.379-5.462-4.079-1.7-1.7-3.107-3.587-4.078-5.46-.183-.354-.116-.785.165-1.066l2.286-2.286c.289-.289.289-.758 0-1.047L8.99 7.798c-.14-.14-.328-.217-.524-.217m1.816-1.075l3.053 3.052c1.002 1.004 1.002 2.63 0 3.633l-1.804 1.802c.865 1.517 2.04 3.035 3.43 4.425 1.39 1.39 2.91 2.566 4.426 3.43l1.802-1.803c1.003-1.003 2.629-1.003 3.632 0l3.053 3.053c1.002 1.003 1.002 2.628 0 3.631l-.532.531c-1.312 1.315-3.127 1.988-5.26 1.988-.953-.007-1.901-.126-2.826-.356-3.195-.77-6.484-2.726-9.26-5.505-2.778-2.78-4.735-6.07-5.506-9.26-.811-3.357-.232-6.23 1.628-8.09l.531-.53c1.004-1.003 2.629-1.003 3.633 0zm7.816 1.967c4.342 0 7.874 3.534 7.874 7.875 0 .505-.409.914-.914.914-.504 0-.913-.409-.913-.914-.004-3.338-2.709-6.043-6.047-6.047-.505 0-.914-.41-.914-.914 0-.505.41-.914.914-.914zm0-3.862c6.472 0 11.737 5.265 11.737 11.737 0 .505-.41.914-.914.914-.505 0-.914-.409-.914-.914 0-5.464-4.447-9.91-9.909-9.91-.505 0-.914-.409-.914-.913 0-.505.41-.914.914-.914z" transform="translate(-361 -1030) translate(361 1012.4) translate(0 17.2)"/>
                </g>
            </g>
        </g>
    </g>
</svg>
