<svg xmlns="http://www.w3.org/2000/svg" width="33" height="33" viewBox="0 0 33 33">
    <g fill="none" fill-rule="evenodd">
        <g>
            <g>
                <g>
                    <path fill="#E44634" fill-rule="nonzero" d="M15.717 2.3c.144-.065.304-.078.455-.04l.11.039L28.98 7.908c.52.23.554.937.098 1.228l-.097.052-12.696 5.63c-.145.064-.305.076-.456.038l-.111-.038L4.003 9.633v12.774l11.786 5.495c.134.063.288.063.422 0l11.785-5.495V11.005l1.126-.448c.103-.041.219.009.26.111.01.024.014.05.014.074v12.112c0 .238-.12.457-.316.585l-.088.049-12.696 5.92c-.15.07-.319.084-.476.042l-.116-.041-12.696-5.921c-.216-.1-.363-.303-.397-.534l-.007-.1V8.558c0-.472.453-.799.89-.674l.093.034L16 13.411l10.967-4.862L16 3.704 7.02 7.682 5.6 7.155c-.104-.038-.156-.154-.118-.257.019-.05.057-.092.107-.113l10.128-4.486z" transform="translate(-362 -967) translate(362 949.4) translate(0 18.2) matrix(-1 0 0 1 32 0)"/>
                    <path fill="#E44634" fill-rule="nonzero" d="M16.7 14.109v11.99c0 .387-.313.7-.7.7-.387 0-.7-.313-.7-.7V14.11h1.4zM25.068 13.658v1.086c0 .076-.043.146-.112.18l-3.472 1.696c-.099.048-.219.007-.267-.092-.013-.028-.02-.058-.02-.088v-1.086c0-.077.043-.147.112-.18l3.471-1.696c.1-.049.22-.007.268.092.013.027.02.057.02.088z" transform="translate(-362 -967) translate(362 949.4) translate(0 18.2)"/>
                </g>
            </g>
        </g>
    </g>
</svg>
