<svg xmlns="http://www.w3.org/2000/svg" width="33" height="33" viewBox="0 0 33 33">
    <g fill="none" fill-rule="evenodd">
        <g>
            <g>
                <path fill="#E44634" d="M16.774 0v2.22c4.56.2 8.475 2.067 10.968 5.34 2.499 3.28 3.036 8.28 1.365 13.46l-.168.52H16.774v3.236h.701l2.271-2c.055-.05.125-.075.198-.075h10.351c.042 0 .084.005.124.015.267.069.43.34.36.609l-.079.312-.1.377c-.376 1.372-.828 2.492-1.368 3.444-.465.819-.997 1.513-1.605 2.135.734.47 1.36.672 2.197.703l.237.004H32v1.5h-1.939c-1.71 0-2.761-.484-4.283-1.701l-.485-.398c-.621-.51-.98-.77-1.395-.984-.166-.086-.332-.15-.499-.194-.652-.172-1.205-.123-2.112.298l-.316.154-.346.183-.38.212-.416.244-.459.277-.772.477c-2.246 1.404-3.912 1.512-6.088.471l-.244-.12c-1.322-.673-2.533-.765-3.93-.117l-.619.312c-.655.33-1.151.546-1.66.696-.337.099-.66.161-.974.182l-.234.008H0v-1.5l3.964.002c-.782-1.437-1.372-3.125-1.589-4.672l-.04-.285c-.003-.023-.005-.045-.005-.07 0-.275.224-.5.5-.5h.46l11.852.001v-1.638H2.037c-.552 0-1-.448-1-1 0-.228.08-.45.222-.628L15.142 4.283V0h1.632zm12.208 24.202h-8.585l-2.354 2.074H4.02l.057.239c.34 1.348.946 2.742 1.668 3.847l-.118-.19.006-.001c.345-.102.706-.252 1.168-.477l.613-.31c1.87-.964 3.575-.925 5.297-.117l.235.115c1.756.892 2.88.891 4.625-.145l1.07-.659.502-.302.462-.27c1.923-1.098 2.825-1.29 4.177-.933.274.072.541.175.804.31.475.246.865.517 1.436.978l.393.322c.59-.578 1.097-1.225 1.538-2.01.375-.667.702-1.435.991-2.345l.038-.126zM15.142 6.674L3.083 21.637l12.059.001V6.674zm1.632-2.952V20.04h11.065l.077-.268c1.234-4.448.689-8.604-1.367-11.304-2.198-2.885-5.671-4.551-9.775-4.746z" transform="translate(-362 -498) translate(362 498.9)"/>
            </g>
        </g>
    </g>
</svg>
