<svg xmlns="http://www.w3.org/2000/svg" width="33" height="33" viewBox="0 0 33 33">
    <g fill="none" fill-rule="evenodd">
        <g>
            <g>
                <path fill="#E44634" d="M29.739 24.472H2.262v-6.913c-.012-.438.143-.857.414-1.156l.944-.945.176-.163c.518-.487 1.008-.946 1.6-.946h21.21c.665 0 1.243.579 1.754 1.09l.94.94c.295.323.45.742.439 1.2v6.893zm-1.929 4.097c0 .399-.324.723-.723.723H25.16c-.398 0-.723-.324-.723-.723v-2.651h3.374v2.651zm-20.246 0c0 .399-.324.723-.723.723H4.913c-.399 0-.723-.324-.723-.723v-2.651h3.374v2.651zM5.827 6.59c.073-1.04.913-1.849 1.93-1.882H24.22c1.04.033 1.88.843 1.957 1.927.14 1.05.44 4.538.587 6.281-.053-.003-.104-.013-.159-.013H5.395c-.055 0-.105.009-.159.012.147-1.745.448-5.242.591-6.325zm25.357 11.008c.022-.813-.268-1.592-.838-2.218l-.964-.964c-.311-.312-.68-.679-1.122-.974-.11-1.314-.48-5.737-.644-6.953-.124-1.781-1.564-3.169-3.373-3.227H7.733C5.95 3.32 4.51 4.708 4.39 6.444c-.168 1.26-.543 5.72-.65 7.015-.35.24-.658.523-.932.78L1.63 15.405c-.547.602-.836 1.381-.814 2.174v8.34h1.928v2.651c0 1.196.973 2.17 2.17 2.17H6.84c1.196 0 2.17-.974 2.17-2.17v-2.651H22.99v2.651c0 1.196.973 2.17 2.17 2.17h1.927c1.196 0 2.17-.974 2.17-2.17v-2.651h1.928v-8.32zM9.493 20.374c0 .133-.109.241-.241.241H6.359c-.132 0-.24-.108-.24-.24v-.965c0-.133.108-.24.24-.24h2.893c.132 0 .24.107.24.24v.964zm-.241-2.65H6.359c-.93 0-1.687.756-1.687 1.686v.964c0 .93.757 1.688 1.687 1.688h2.893c.93 0 1.687-.757 1.687-1.688v-.964c0-.93-.757-1.687-1.687-1.687zm16.63 2.65c0 .133-.108.241-.24.241h-2.893c-.133 0-.241-.108-.241-.24v-.965c0-.133.108-.24.24-.24h2.893c.133 0 .241.107.241.24v.964zm-.24-2.65c.93 0 1.686.756 1.686 1.686v.964c0 .93-.756 1.688-1.687 1.688H22.75c-.93 0-1.687-.757-1.687-1.688v-.964c0-.93.757-1.687 1.687-1.687zm-7.714 1.927c.4 0 .724.324.724.723 0 .4-.324.723-.724.723h-3.856c-.4 0-.723-.323-.723-.723 0-.4.324-.723.723-.723z" transform="translate(-362 -435) translate(362 435.9)"/>
            </g>
        </g>
    </g>
</svg>
