<svg xmlns="http://www.w3.org/2000/svg" width="232" height="40" viewBox="0 0 232 40">
    <g fill="none" fill-rule="evenodd">
        <g>
            <g>
                <text fill="#A5130C" font-family="RobotoMono-Regular, Roboto Mono" font-size="12" transform="translate(-187 -38) translate(187 38)">
                    <tspan x="167" y="16">developer</tspan>
                </text>
                <g fill-rule="nonzero">
                    <g fill="#515F6C">
                        <g>
                            <path d="M0 10.079L4.301 10.079 4.301 26.855 0 26.855zM16.053 9.576c-2.62 0-5.202.643-7.517 1.872v15.396h4.305V13.82c.85-.442 1.798-.666 2.757-.653 1.933-.004 3.772.762 3.772 4.027v9.65h4.3V16.086c0-4.333-3.15-6.51-7.617-6.51zM32.009 7.156c0-2.176.82-3.513 2.792-3.513 1.002.021 1.975.345 2.79.927l1.584-3.125C37.69.361 35.655 0 34.17 0 29.67 0 27.7 3.415 27.7 7.123v27.774h4.301V13.494h4.203v-3.382h-4.196V7.156zM46.684 9.576c-5.223 0-9.193 3.972-9.193 8.924 0 4.95 3.972 8.831 9.095 8.831 5.089 0 9.093-3.972 9.093-8.831.004-2.38-.945-4.663-2.635-6.34-1.69-1.676-3.98-2.606-6.36-2.584zm-.13 14.412c-2.364 0-4.57-2.263-4.57-5.382 0-3.282 2.001-5.548 4.694-5.548 2.428 0 4.463 2.266 4.463 5.442.005 3.297-1.832 5.497-4.587 5.497v-.009zM62.41 5.441h-2.175V11.1h-2.83v1.904h2.83v9.226c0 4.037 1.937 4.956 4.629 4.956l1.149-1.742c-2.135-.032-3.61-.393-3.61-3.61V13h3.912v-1.9h-3.904V5.44zM76.756 10.636c-4.76 0-8.469 3.643-8.469 8.338 0 4.695 3.7 8.305 8.438 8.305s8.403-3.676 8.403-8.305c.012-2.221-.867-4.354-2.441-5.921-1.574-1.567-3.71-2.438-5.931-2.417zm-.098 14.741c-3.437-.05-6.184-2.875-6.138-6.312 0-3.808 2.527-6.529 6.173-6.529 3.314 0 6.137 2.725 6.137 6.436 0 3.843-2.494 6.405-6.172 6.405zM91.168 13.328v-2.265H88.99v15.79h2.177V16.119c.165-1.306 1.347-3.35 3.184-3.35.666.022 1.308.25 1.84.653l1.018-2.068c-.816-.45-1.728-.699-2.66-.722-1.806.004-3.184 1.974-3.382 2.696zM106.927 10.636c-4.466 0-8.634 2.888-8.634 8.37 0 5.252 3.842 8.271 7.618 8.271 2.075-.06 4.03-.989 5.384-2.562V27.9c0 4.826-2.888 5.679-5.153 5.679-1.937 0-4.038-.623-5.483-1.609l-.98 1.68c1.91 1.225 4.134 1.865 6.402 1.84 3.545 0 7.354-1.774 7.354-7.748V12.638c-1.093-.853-3.29-2.002-6.508-2.002zm4.366 11.818c-.918 1.608-3.047 2.888-4.89 2.888-4.105 0-5.811-3.513-5.811-6.335 0-4.399 3.086-6.466 6.335-6.466 1.535-.011 3.043.393 4.366 1.17v8.743z" transform="translate(-187 -38) translate(187 38) translate(48 2) translate(.391 .749)"/>
                        </g>
                    </g>
                    <g transform="translate(-187 -38) translate(187 38) translate(1 3)">
                        <circle cx="22.316" cy="20.29" r="7.596" fill="#515F6C" transform="rotate(-4.67 22.316 20.29)"/>
                        <circle cx="7.803" cy="7.807" r="7.596" fill="#C0C8CD" transform="rotate(-89.67 7.803 7.807)"/>
                        <path fill="#C0C8CD" d="M38.077 19.04c-.366-4.549-2.681-8.717-6.35-11.431-3.67-2.714-8.333-3.709-12.79-2.727l.423 4.809c4.683-1.297 9.662.624 12.261 4.73 2.6 4.105 2.206 9.428-.968 13.106-3.175 3.679-8.382 4.847-12.824 2.877-4.441-1.97-7.07-6.615-6.474-11.438l-4.824.407c-.362 5.91 2.608 11.526 7.695 14.554 5.087 3.029 11.44 2.962 16.463-.172 5.022-3.135 7.873-8.812 7.388-14.713v-.002z"/>
                    </g>
                </g>
            </g>
        </g>
    </g>
</svg>
