<svg xmlns="http://www.w3.org/2000/svg" width="244" height="188" viewBox="0 0 244 188">
    <g fill="none" fill-rule="evenodd">
        <g fill-rule="nonzero" stroke="#FFF">
            <g>
                <g>
                    <path d="M52.099 46.928L56.907 46.927 56.948 46.926 57.034 46.918 57.166 46.901 57.341 46.871 57.56 46.824 57.82 46.755 58.121 46.661 58.46 46.539 58.836 46.385 59.246 46.196 59.689 45.968 60.16 45.698 60.658 45.384 61.179 45.022 61.721 44.61 62.279 44.146 62.85 43.627 63.43 43.052 64.015 42.418 64.602 41.725 65.186 40.97 65.763 40.154 65.834 40.047 65.843 40.034 65.848 40.027 65.849 40.026 65.453 38.353 65.452 38.352 65.445 38.348 65.431 38.34 65.319 38.277 64.438 37.805 63.578 37.392 62.742 37.035 61.935 36.731 61.159 36.476 60.416 36.268 59.709 36.103 59.041 35.977 58.413 35.887 57.827 35.829 57.284 35.799 56.787 35.793 56.335 35.807 55.93 35.838 55.572 35.881 55.261 35.932 54.997 35.987 54.781 36.043 54.61 36.094 54.485 36.138 54.405 36.17 54.367 36.187 50.069 38.34 46.483 33.369 49.883 29.969 49.91 29.939 49.966 29.873 50.047 29.768 50.15 29.622 50.271 29.434 50.406 29.202 50.553 28.923 50.706 28.596 50.863 28.222 51.02 27.798 51.171 27.324 51.314 26.8 51.444 26.225 51.556 25.601 51.648 24.927 51.714 24.204 51.751 23.433 51.754 22.616 51.72 21.754 51.645 20.849 51.524 19.903 51.355 18.917 51.33 18.792 51.327 18.776 51.325 18.768 49.863 17.863 49.861 17.863 49.853 17.866 49.838 17.87 49.714 17.904 48.757 18.194 47.857 18.51 47.014 18.848 46.228 19.203 45.499 19.572 44.826 19.951 44.21 20.333 43.648 20.717 43.14 21.098 42.685 21.471 42.28 21.833 41.924 22.181 41.615 22.511 41.35 22.819 41.127 23.102 40.944 23.358 40.796 23.584 40.682 23.776 40.598 23.933 40.541 24.052 40.506 24.132 40.492 24.17 38.975 28.732 32.924 27.753 32.924 22.945 32.923 22.904 32.915 22.818 32.898 22.686 32.868 22.511 32.82 22.292 32.752 22.032 32.658 21.731 32.536 21.392 32.382 21.016 32.193 20.605 31.965 20.163 31.695 19.692 31.381 19.194 31.019 18.672 30.607 18.131 30.143 17.573 29.624 17.002 29.049 16.422 28.415 15.837 27.722 15.25 26.967 14.666 26.151 14.089 26.044 14.018 26.031 14.009 26.024 14.004 24.35 14.399 24.349 14.4 24.345 14.407 24.337 14.421 24.274 14.533 23.802 15.414 23.389 16.274 23.032 17.109 22.727 17.917 22.473 18.693 22.265 19.436 22.099 20.143 21.974 20.811 21.884 21.439 21.826 22.025 21.796 22.568 21.79 23.065 21.804 23.517 21.835 23.922 21.878 24.28 21.929 24.591 21.984 24.855 22.039 25.071 22.091 25.242 22.135 25.367 22.167 25.447 22.184 25.485 24.337 29.783 19.366 33.369 15.966 29.969 15.936 29.942 15.87 29.886 15.765 29.805 15.619 29.702 15.431 29.581 15.198 29.446 14.92 29.299 14.593 29.146 14.219 28.989 13.795 28.832 13.321 28.681 12.797 28.538 12.222 28.408 11.598 28.296 10.924 28.204 10.201 28.138 9.43 28.101 8.613 28.098 7.751 28.132 6.846 28.207 5.899 28.328 4.914 28.497 4.788 28.522 4.773 28.525 4.765 28.527 3.86 29.989 3.862 29.999 3.867 30.014 3.901 30.138 4.191 31.095 4.507 31.995 4.845 32.838 5.2 33.624 5.569 34.353 5.947 35.026 6.33 35.642 6.714 36.204 7.095 36.712 7.468 37.167 7.83 37.572 8.178 37.928 8.508 38.237 8.816 38.502 9.099 38.724 9.355 38.908 9.581 39.056 9.773 39.17 9.93 39.254 10.049 39.311 10.129 39.345 10.167 39.36 14.729 40.877 13.75 46.928 8.942 46.928 8.901 46.929 8.814 46.937 8.683 46.954 8.508 46.984 8.289 47.031 8.029 47.1 7.728 47.194 7.389 47.316 7.013 47.47 6.602 47.659 6.16 47.887 5.689 48.157 5.191 48.471 4.669 48.833 4.128 49.245 3.57 49.709 2.999 50.228 2.419 50.803 1.833 51.437 1.247 52.13 0.663 52.885 0.086 53.701 0.014 53.808 0.006 53.821 0.001 53.828 0 53.83 0.395 55.502 0.404 55.507 0.418 55.515 0.53 55.578 1.411 56.05 2.271 56.463 3.106 56.82 3.914 57.125 4.69 57.379 5.433 57.587 6.14 57.752 6.808 57.878 7.436 57.968 8.022 58.026 8.565 58.056 9.062 58.062 9.514 58.048 9.919 58.017 10.277 57.974 10.588 57.923 10.851 57.868 11.068 57.813 11.239 57.761 11.364 57.717 11.444 57.685 11.482 57.668 15.78 55.515 19.366 60.486 15.966 63.886 15.939 63.916 15.883 63.982 15.802 64.087 15.699 64.233 15.578 64.421 15.443 64.654 15.296 64.932 15.142 65.259 14.986 65.633 14.829 66.057 14.678 66.531 14.535 67.055 14.405 67.63 14.292 68.254 14.201 68.928 14.135 69.651 14.098 70.422 14.094 71.239 14.128 72.101 14.204 73.006 14.324 73.952 14.494 74.938 14.519 75.063 14.522 75.079 14.523 75.087 14.524 75.089 15.986 75.992 15.988 75.992 15.996 75.989 16.011 75.985 16.135 75.951 17.092 75.661 17.992 75.345 18.835 75.007 19.621 74.652 20.35 74.283 21.023 73.905 21.639 73.522 22.201 73.138 22.709 72.757 23.164 72.384 23.569 72.022 23.925 71.674 24.234 71.344 24.498 71.036 24.721 70.753 24.905 70.497 25.052 70.271 25.167 70.079 25.251 69.922 25.308 69.803 25.342 69.723 25.357 69.685 26.874 65.123 32.924 66.102 32.924 70.91 32.926 70.951 32.934 71.037 32.95 71.169 32.981 71.344 33.028 71.563 33.097 71.823 33.191 72.124 33.313 72.463 33.467 72.839 33.656 73.25 33.884 73.692 34.154 74.163 34.468 74.661 34.83 75.183 35.242 75.724 35.706 76.282 36.225 76.853 36.8 77.433 37.434 78.018 38.127 78.605 38.882 79.189 39.698 79.766 39.805 79.837 39.818 79.846 39.825 79.851 41.499 79.456 41.5 79.455 41.504 79.448 41.512 79.434 41.575 79.322 42.047 78.441 42.46 77.581 42.817 76.746 43.121 75.938 43.376 75.162 43.584 74.419 43.749 73.712 43.875 73.044 43.965 72.416 44.023 71.83 44.053 71.287 44.059 70.79 44.045 70.338 44.014 69.933 43.971 69.575 43.92 69.264 43.865 69 43.809 68.784 43.758 68.613 43.714 68.488 43.682 68.408 43.665 68.37 41.512 64.072 46.483 60.486 49.883 63.886 49.913 63.913 49.979 63.969 50.084 64.05 50.229 64.153 50.418 64.274 50.65 64.409 50.929 64.556 51.255 64.709 51.63 64.866 52.054 65.023 52.528 65.174 53.052 65.317 53.627 65.447 54.251 65.559 54.925 65.651 55.648 65.717 56.418 65.754 57.236 65.758 58.098 65.724 59.003 65.648 59.949 65.528 60.935 65.358 61.06 65.333 61.076 65.33 61.084 65.329 61.086 65.328 61.989 63.866 61.986 63.856 61.982 63.841 61.948 63.717 61.658 62.76 61.342 61.86 61.004 61.017 60.648 60.231 60.279 59.502 59.901 58.829 59.518 58.213 59.135 57.651 58.754 57.143 58.381 56.688 58.019 56.283 57.671 55.927 57.341 55.618 57.033 55.353 56.75 55.131 56.494 54.947 56.268 54.8 56.076 54.685 55.919 54.601 55.8 54.544 55.72 54.51 55.682 54.495 51.12 52.978z" transform="translate(-132 -148) translate(0 148) translate(132.493)"/>
                    <path d="M138.785 101.92L140.663 101.92 140.693 101.919 140.745 101.916 140.82 101.911 140.918 101.901 141.038 101.888 141.181 101.868 141.345 101.841 141.531 101.807 141.739 101.764 141.969 101.712 142.219 101.649 142.489 101.574 142.78 101.488 143.091 101.387 143.421 101.273 143.77 101.143 144.137 100.998 144.522 100.835 144.924 100.655 145.342 100.457 145.777 100.239 146.227 100.001 146.691 99.742 147.17 99.461 147.662 99.158 148.166 98.833 148.682 98.483 149.208 98.109 149.745 97.71 150.291 97.285 150.845 96.834 151.407 96.357 151.975 95.852 152.549 95.319 152.837 95.042 152.855 95.025 152.856 95.024 152.535 92.638 152.533 92.638 152.511 92.625 152.16 92.435 151.465 92.073 150.784 91.737 150.116 91.425 149.462 91.137 148.823 90.872 148.2 90.629 147.593 90.408 147.003 90.208 146.43 90.027 145.876 89.865 145.34 89.721 144.824 89.595 144.327 89.484 143.85 89.389 143.394 89.309 142.958 89.241 142.544 89.187 142.152 89.143 141.781 89.111 141.433 89.088 141.107 89.074 140.803 89.067 140.522 89.067 140.264 89.072 140.03 89.082 139.818 89.096 139.629 89.112 139.463 89.131 139.321 89.149 139.201 89.168 139.105 89.184 139.031 89.199 138.979 89.21 138.951 89.217 137.14 89.715 135.277 84.283 137.012 83.564 137.039 83.552 137.086 83.53 137.154 83.496 137.24 83.45 137.346 83.391 137.47 83.318 137.612 83.231 137.771 83.128 137.947 83.009 138.138 82.873 138.345 82.719 138.567 82.546 138.803 82.355 139.051 82.143 139.312 81.911 139.585 81.658 139.868 81.383 140.162 81.086 140.464 80.766 140.775 80.422 141.093 80.054 141.418 79.662 141.748 79.245 142.083 78.803 142.421 78.335 142.762 77.841 143.105 77.321 143.448 76.773 143.791 76.199 144.133 75.598 144.473 74.97 144.809 74.313 145.141 73.629 145.467 72.918 145.627 72.551 145.637 72.528 145.638 72.527 144.428 70.446 144.427 70.446 144.402 70.443 144.004 70.402 143.224 70.333 142.465 70.283 141.729 70.251 141.015 70.235 140.323 70.235 139.654 70.249 139.009 70.277 138.387 70.318 137.789 70.37 137.215 70.432 136.665 70.504 136.139 70.585 135.638 70.673 135.161 70.768 134.709 70.868 134.281 70.973 133.877 71.081 133.498 71.191 133.143 71.303 132.812 71.415 132.506 71.526 132.223 71.636 131.963 71.743 131.727 71.847 131.514 71.947 131.324 72.04 131.155 72.128 131.009 72.208 130.885 72.28 130.781 72.342 130.698 72.395 130.636 72.437 130.593 72.467 130.569 72.484 129.086 73.637 125.286 69.331 126.614 68.003 126.635 67.982 126.67 67.943 126.719 67.886 126.782 67.81 126.857 67.715 126.944 67.601 127.041 67.466 127.149 67.31 127.266 67.132 127.391 66.933 127.523 66.712 127.662 66.468 127.806 66.201 127.955 65.91 128.107 65.596 128.262 65.258 128.419 64.895 128.576 64.508 128.733 64.097 128.888 63.66 129.042 63.199 129.192 62.712 129.337 62.201 129.477 61.664 129.61 61.102 129.737 60.515 129.854 59.903 129.962 59.266 130.059 58.605 130.145 57.918 130.218 57.208 130.278 56.473 130.322 55.714 130.351 54.932 130.36 54.532 130.36 54.507 130.36 54.505 128.446 53.046 128.445 53.046 128.42 53.053 128.037 53.167 127.29 53.402 126.57 53.646 125.877 53.898 125.211 54.157 124.572 54.421 123.96 54.691 123.375 54.963 122.816 55.239 122.283 55.516 121.777 55.793 121.296 56.07 120.841 56.346 120.412 56.619 120.008 56.889 119.628 57.155 119.272 57.415 118.941 57.67 118.633 57.917 118.348 58.156 118.085 58.386 117.844 58.606 117.625 58.816 117.426 59.014 117.248 59.201 117.089 59.374 116.949 59.533 116.827 59.679 116.723 59.808 116.635 59.922 116.564 60.02 116.507 60.1 116.465 60.163 116.437 60.207 116.422 60.232 115.493 61.865 110.335 59.341 111.053 57.606 111.064 57.578 111.082 57.529 111.105 57.457 111.134 57.363 111.167 57.247 111.203 57.108 111.242 56.946 111.282 56.761 111.322 56.552 111.361 56.32 111.399 56.065 111.433 55.787 111.464 55.485 111.491 55.159 111.511 54.811 111.525 54.439 111.531 54.044 111.528 53.626 111.516 53.186 111.492 52.723 111.457 52.238 111.41 51.731 111.348 51.203 111.272 50.654 111.18 50.083 111.072 49.493 110.947 48.883 110.803 48.253 110.639 47.604 110.456 46.938 110.252 46.253 110.025 45.551 109.776 44.833 109.504 44.099 109.358 43.727 109.349 43.703 109.348 43.702 107.022 43.086 107.02 43.087 107.001 43.103 106.69 43.355 106.09 43.858 105.518 44.359 104.975 44.857 104.458 45.35 103.969 45.839 103.507 46.322 103.07 46.798 102.659 47.267 102.273 47.726 101.911 48.177 101.573 48.617 101.259 49.045 100.967 49.462 100.696 49.866 100.447 50.257 100.218 50.634 100.009 50.995 99.819 51.341 99.647 51.671 99.493 51.984 99.355 52.28 99.232 52.558 99.125 52.817 99.031 53.058 98.951 53.279 98.882 53.48 98.825 53.66 98.779 53.82 98.741 53.959 98.712 54.076 98.691 54.172 98.676 54.246 98.667 54.298 98.663 54.327 98.429 56.191 92.698 55.833 92.698 53.955 92.697 53.925 92.694 53.873 92.689 53.798 92.68 53.7 92.666 53.58 92.646 53.437 92.62 53.273 92.585 53.086 92.543 52.879 92.49 52.649 92.427 52.399 92.353 52.129 92.266 51.838 92.166 51.527 92.051 51.197 91.922 50.848 91.776 50.481 91.614 50.096 91.433 49.694 91.235 49.276 91.017 48.841 90.779 48.391 90.52 47.927 90.24 47.448 89.937 46.956 89.611 46.452 89.261 45.936 88.887 45.41 88.488 44.873 88.063 44.327 87.613 43.773 87.135 43.211 86.63 42.643 86.097 42.069 85.82 41.781 85.803 41.763 85.802 41.762 83.417 42.083 83.416 42.084 83.404 42.107 83.213 42.458 82.851 43.153 82.515 43.834 82.203 44.502 81.915 45.156 81.65 45.795 81.408 46.418 81.186 47.025 80.986 47.615 80.805 48.188 80.643 48.742 80.499 49.278 80.373 49.794 80.263 50.291 80.167 50.768 80.087 51.224 80.02 51.66 79.965 52.074 79.922 52.466 79.889 52.837 79.866 53.185 79.852 53.511 79.845 53.815 79.845 54.096 79.85 54.353 79.861 54.588 79.874 54.8 79.891 54.989 79.909 55.155 79.927 55.297 79.946 55.417 79.963 55.513 79.977 55.587 79.989 55.639 79.996 55.667 80.493 57.478 75.061 59.341 74.343 57.606 74.33 57.579 74.308 57.532 74.274 57.464 74.228 57.377 74.169 57.272 74.097 57.148 74.009 57.006 73.906 56.847 73.787 56.671 73.651 56.479 73.497 56.272 73.325 56.051 73.133 55.815 72.922 55.567 72.69 55.306 72.436 55.033 72.161 54.75 71.864 54.456 71.544 54.154 71.2 53.843 70.833 53.525 70.44 53.2 70.024 52.87 69.581 52.535 69.113 52.197 68.619 51.856 68.099 51.513 67.552 51.17 66.978 50.827 66.377 50.485 65.748 50.145 65.092 49.809 64.408 49.477 63.696 49.151 63.33 48.991 63.307 48.981 63.305 48.98 61.225 50.19 61.224 50.191 61.222 50.216 61.18 50.614 61.112 51.394 61.062 52.153 61.029 52.889 61.013 53.603 61.013 54.295 61.027 54.964 61.055 55.609 61.096 56.231 61.148 56.829 61.211 57.403 61.283 57.953 61.363 58.479 61.452 58.98 61.546 59.457 61.646 59.909 61.751 60.337 61.859 60.741 61.969 61.12 62.081 61.475 62.193 61.806 62.305 62.112 62.414 62.395 62.522 62.655 62.626 62.891 62.725 63.104 62.819 63.294 62.906 63.463 62.986 63.609 63.058 63.733 63.121 63.837 63.173 63.92 63.215 63.982 63.245 64.025 63.263 64.049 64.415 65.532 60.11 69.331 58.782 68.004 58.76 67.983 58.721 67.948 58.664 67.899 58.589 67.836 58.494 67.761 58.379 67.674 58.244 67.577 58.088 67.469 57.911 67.352 57.712 67.227 57.49 67.095 57.246 66.956 56.979 66.812 56.688 66.663 56.374 66.511 56.036 66.356 55.673 66.199 55.287 66.042 54.875 65.885 54.438 65.73 53.977 65.576 53.491 65.426 52.979 65.281 52.442 65.141 51.88 65.007 51.294 64.881 50.682 64.764 50.045 64.656 49.383 64.559 48.697 64.473 47.986 64.4 47.251 64.34 46.492 64.296 45.71 64.267 45.31 64.258 45.285 64.258 45.283 64.258 43.824 66.172 43.825 66.173 43.832 66.198 43.945 66.581 44.181 67.328 44.425 68.048 44.677 68.741 44.935 69.407 45.2 70.046 45.469 70.658 45.742 71.243 46.017 71.802 46.294 72.335 46.572 72.841 46.849 73.322 47.124 73.777 47.398 74.206 47.668 74.61 47.933 74.99 48.194 75.345 48.448 75.677 48.695 75.985 48.934 76.27 49.164 76.533 49.384 76.774 49.594 76.993 49.793 77.192 49.979 77.37 50.152 77.529 50.312 77.669 50.457 77.791 50.587 77.895 50.701 77.983 50.798 78.054 50.879 78.111 50.941 78.153 50.985 78.181 51.011 78.196 52.643 79.125 50.119 84.283 48.384 83.565 48.356 83.554 48.307 83.536 48.236 83.513 48.142 83.484 48.025 83.451 47.886 83.415 47.724 83.376 47.539 83.336 47.33 83.296 47.099 83.257 46.843 83.219 46.565 83.185 46.263 83.154 45.937 83.127 45.589 83.107 45.217 83.093 44.822 83.087 44.404 83.09 43.964 83.102 43.501 83.126 43.016 83.161 42.51 83.208 41.981 83.27 41.432 83.346 40.862 83.437 40.271 83.546 39.661 83.671 39.031 83.815 38.383 83.978 37.716 84.162 37.031 84.366 36.33 84.593 35.611 84.842 34.877 85.114 34.505 85.26 34.481 85.269 34.48 85.27 33.864 87.596 33.865 87.598 33.881 87.617 34.133 87.928 34.636 88.528 35.137 89.099 35.635 89.643 36.129 90.16 36.618 90.649 37.101 91.111 37.577 91.548 38.045 91.959 38.505 92.345 38.955 92.707 39.395 93.045 39.824 93.359 40.24 93.651 40.645 93.922 41.035 94.171 41.412 94.399 41.773 94.608 42.12 94.799 42.45 94.97 42.763 95.125 43.058 95.263 43.336 95.386 43.596 95.493 43.836 95.587 44.057 95.667 44.258 95.736 44.438 95.793 44.598 95.839 44.737 95.877 44.855 95.905 44.951 95.927 45.024 95.942 45.076 95.951 45.105 95.955 46.969 96.189 46.611 101.92 44.733 101.92 44.703 101.921 44.651 101.923 44.576 101.929 44.478 101.938 44.358 101.952 44.216 101.972 44.051 101.998 43.865 102.033 43.657 102.075 43.428 102.128 43.178 102.191 42.907 102.265 42.616 102.352 42.305 102.452 41.975 102.567 41.627 102.696 41.26 102.842 40.875 103.004 40.473 103.184 40.054 103.383 39.619 103.601 39.169 103.839 38.705 104.098 38.226 104.378 37.735 104.681 37.231 105.007 36.715 105.357 36.188 105.731 35.651 106.13 35.105 106.554 34.551 107.005 33.99 107.483 33.421 107.988 32.848 108.521 32.559 108.798 32.541 108.815 32.54 108.816 32.862 111.201 32.863 111.202 32.885 111.214 33.237 111.405 33.931 111.767 34.612 112.103 35.28 112.415 35.934 112.703 36.573 112.968 37.196 113.21 37.803 113.432 38.393 113.632 38.966 113.813 39.52 113.975 40.056 114.118 40.572 114.245 41.069 114.355 41.546 114.45 42.002 114.531 42.438 114.598 42.852 114.653 43.244 114.696 43.615 114.729 43.964 114.752 44.29 114.766 44.593 114.773 44.874 114.773 45.132 114.768 45.367 114.757 45.578 114.744 45.767 114.727 45.933 114.709 46.075 114.69 46.195 114.672 46.292 114.655 46.366 114.641 46.417 114.629 46.446 114.622 48.257 114.125 50.119 119.557 48.384 120.275 48.357 120.287 48.31 120.31 48.243 120.344 48.156 120.39 48.05 120.449 47.926 120.521 47.784 120.609 47.625 120.712 47.449 120.831 47.258 120.967 47.051 121.121 46.829 121.293 46.594 121.485 46.345 121.696 46.084 121.928 45.811 122.182 45.528 122.456 45.235 122.754 44.932 123.074 44.621 123.418 44.303 123.785 43.979 124.177 43.648 124.594 43.314 125.037 42.975 125.505 42.634 125.999 42.291 126.519 41.948 127.066 41.605 127.64 41.263 128.241 40.923 128.87 40.587 129.526 40.256 130.21 39.929 130.922 39.769 131.288 39.759 131.311 39.758 131.313 40.968 133.393 40.97 133.394 40.995 133.396 41.393 133.438 42.172 133.506 42.931 133.556 43.667 133.589 44.382 133.605 45.073 133.605 45.742 133.591 46.387 133.563 47.009 133.522 47.607 133.47 48.181 133.407 48.731 133.335 49.257 133.255 49.758 133.166 50.235 133.072 50.688 132.972 51.115 132.867 51.519 132.759 51.898 132.649 52.253 132.537 52.584 132.425 52.891 132.313 53.174 132.204 53.433 132.096 53.669 131.992 53.882 131.893 54.073 131.799 54.241 131.712 54.387 131.632 54.512 131.56 54.615 131.497 54.698 131.445 54.76 131.403 54.803 131.373 54.827 131.355 56.31 130.203 60.11 134.508 58.782 135.836 58.761 135.858 58.726 135.897 58.677 135.954 58.614 136.029 58.539 136.124 58.453 136.239 58.355 136.374 58.247 136.53 58.131 136.707 58.006 136.906 57.873 137.128 57.735 137.372 57.59 137.639 57.442 137.929 57.289 138.244 57.134 138.582 56.978 138.944 56.82 139.331 56.663 139.743 56.508 140.18 56.355 140.641 56.205 141.127 56.059 141.639 55.919 142.176 55.786 142.737 55.66 143.324 55.542 143.936 55.434 144.573 55.337 145.235 55.251 145.921 55.178 146.632 55.119 147.367 55.074 148.126 55.045 148.908 55.037 149.308 55.036 149.333 55.036 149.335 56.95 150.794 56.952 150.793 56.976 150.786 57.359 150.672 58.106 150.437 58.826 150.193 59.519 149.941 60.185 149.683 60.824 149.418 61.436 149.149 62.022 148.876 62.581 148.601 63.113 148.324 63.62 148.046 64.1 147.769 64.555 147.494 64.984 147.22 65.389 146.95 65.768 146.685 66.124 146.424 66.455 146.17 66.763 145.923 67.048 145.684 67.311 145.454 67.552 145.234 67.771 145.024 67.97 144.825 68.148 144.639 68.307 144.466 68.447 144.306 68.569 144.161 68.674 144.031 68.761 143.917 68.833 143.82 68.889 143.739 68.931 143.677 68.959 143.633 68.975 143.607 69.904 141.975 75.061 144.499 74.343 146.234 74.332 146.261 74.315 146.311 74.291 146.382 74.262 146.476 74.229 146.593 74.193 146.732 74.154 146.894 74.115 147.079 74.075 147.288 74.035 147.519 73.998 147.775 73.963 148.053 73.932 148.355 73.906 148.68 73.885 149.029 73.871 149.401 73.865 149.796 73.868 150.213 73.881 150.654 73.904 151.117 73.939 151.602 73.987 152.108 74.048 152.637 74.124 153.186 74.216 153.756 74.324 154.347 74.45 154.957 74.593 155.587 74.757 156.235 74.94 156.902 75.145 157.587 75.371 158.288 75.62 159.007 75.893 159.74 76.038 160.113 76.047 160.137 76.048 160.138 78.375 160.754 78.376 160.753 78.395 160.737 78.706 160.485 79.306 159.982 79.878 159.481 80.422 158.983 80.938 158.489 81.427 158 81.89 157.517 82.326 157.041 82.737 156.573 83.123 156.113 83.485 155.663 83.823 155.223 84.138 154.794 84.43 154.378 84.7 153.973 84.949 153.583 85.178 153.206 85.387 152.844 85.577 152.498 85.749 152.168 85.903 151.855 86.041 151.56 86.164 151.282 86.271 151.022 86.365 150.782 86.446 150.561 86.514 150.36 86.571 150.179 86.618 150.02 86.655 149.881 86.684 149.763 86.705 149.667 86.72 149.594 86.729 149.542 86.734 149.512 86.967 147.649 92.698 148.007 92.698 149.885 92.699 149.914 92.702 149.967 92.707 150.042 92.716 150.14 92.73 150.26 92.75 150.402 92.777 150.567 92.811 150.753 92.854 150.961 92.906 151.19 92.969 151.44 93.044 151.711 93.13 152.002 93.231 152.313 93.345 152.643 93.475 152.991 93.62 153.358 93.783 153.743 93.963 154.145 94.161 154.564 94.379 154.999 94.617 155.448 94.876 155.913 95.157 156.392 95.46 156.883 95.785 157.387 96.135 157.903 96.509 158.43 96.908 158.967 97.333 159.513 97.784 160.067 98.261 160.628 98.766 161.197 99.299 161.77 99.576 162.059 99.593 162.077 99.594 162.078 101.98 161.756 101.98 161.755 101.993 161.733 102.183 161.381 102.545 160.687 102.881 160.006 103.193 159.337 103.481 158.684 103.746 158.045 103.989 157.422 104.21 156.815 104.41 156.225 104.591 155.652 104.753 155.098 104.897 154.562 105.023 154.046 105.134 153.549 105.229 153.072 105.309 152.616 105.377 152.18 105.431 151.766 105.474 151.374 105.507 151.003 105.53 150.654 105.544 150.328 105.551 150.025 105.551 149.744 105.546 149.486 105.536 149.251 105.522 149.039 105.505 148.851 105.487 148.685 105.469 148.542 105.45 148.423 105.433 148.326 105.419 148.252 105.408 148.201 105.401 148.172 104.903 146.361 110.335 144.499 111.054 146.234 111.066 146.261 111.088 146.308 111.122 146.375 111.168 146.462 111.227 146.568 111.3 146.692 111.387 146.834 111.49 146.993 111.609 147.169 111.745 147.36 111.899 147.567 112.072 147.789 112.263 148.024 112.475 148.273 112.707 148.534 112.96 148.807 113.235 149.09 113.532 149.383 113.852 149.686 114.196 149.997 114.564 150.315 114.956 150.639 115.373 150.97 115.815 151.304 116.283 151.643 116.777 151.984 117.297 152.327 117.844 152.67 118.418 153.013 119.02 153.355 119.648 153.694 120.305 154.031 120.988 154.362 121.7 154.688 122.067 154.849 122.09 154.859 122.091 154.86 124.172 153.65 124.172 153.648 124.175 153.623 124.216 153.225 124.285 152.446 124.335 151.687 124.367 150.951 124.383 150.236 124.383 149.545 124.369 148.876 124.341 148.231 124.3 147.609 124.248 147.011 124.186 146.437 124.113 145.887 124.033 145.361 123.945 144.86 123.85 144.383 123.75 143.93 123.645 143.502 123.537 143.099 123.427 142.72 123.315 142.365 123.203 142.034 123.092 141.727 122.982 141.444 122.874 141.185 122.771 140.949 122.671 140.736 122.578 140.545 122.49 140.377 122.41 140.231 122.338 140.106 122.276 140.003 122.223 139.92 122.181 139.857 122.151 139.814 122.134 139.79 120.981 138.308 125.286 134.508 126.615 135.836 126.636 135.856 126.675 135.892 126.732 135.941 126.808 136.003 126.903 136.079 127.017 136.165 127.152 136.263 127.308 136.371 127.485 136.487 127.685 136.612 127.906 136.745 128.15 136.883 128.417 137.028 128.708 137.176 129.022 137.329 129.36 137.484 129.723 137.64 130.11 137.798 130.521 137.955 130.958 138.11 131.419 138.263 131.906 138.413 132.417 138.559 132.954 138.699 133.516 138.832 134.103 138.958 134.715 139.076 135.352 139.184 136.013 139.281 136.699 139.367 137.41 139.44 138.145 139.499 138.904 139.544 139.686 139.573 140.086 139.581 140.111 139.582 140.113 139.582 141.572 137.668 141.572 137.666 141.565 137.642 141.451 137.259 141.216 136.512 140.972 135.792 140.72 135.099 140.461 134.433 140.197 133.794 139.927 133.182 139.655 132.596 139.379 132.037 139.102 131.505 138.825 130.998 138.548 130.518 138.272 130.063 137.998 129.634 137.729 129.229 137.463 128.85 137.203 128.494 136.948 128.163 136.701 127.855 136.462 127.57 136.232 127.307 136.012 127.066 135.802 126.847 135.604 126.648 135.417 126.47 135.244 126.311 135.085 126.171 134.939 126.049 134.81 125.944 134.696 125.857 134.598 125.785 134.518 125.729 134.455 125.687 134.411 125.659 134.385 125.643 132.753 124.714 135.277 119.557 137.012 120.275 137.04 120.286 137.089 120.303 137.161 120.327 137.254 120.356 137.371 120.389 137.51 120.425 137.672 120.464 137.857 120.503 138.066 120.543 138.298 120.583 138.553 120.62 138.831 120.655 139.133 120.686 139.459 120.712 139.807 120.733 140.179 120.747 140.574 120.753 140.992 120.75 141.432 120.737 141.895 120.714 142.38 120.679 142.887 120.631 143.415 120.57 143.964 120.494 144.534 120.402 145.125 120.294 145.735 120.168 146.365 120.024 147.014 119.861 147.68 119.678 148.365 119.473 149.067 119.247 149.785 118.998 150.519 118.725 150.891 118.58 150.915 118.571 150.916 118.57 151.532 116.243 151.531 116.242 151.515 116.222 151.263 115.912 150.76 115.312 150.259 114.74 149.761 114.196 149.268 113.68 148.779 113.191 148.296 112.728 147.82 112.292 147.351 111.881 146.892 111.495 146.441 111.133 146.001 110.795 145.573 110.48 145.156 110.188 144.752 109.918 144.361 109.669 143.984 109.44 143.623 109.231 143.277 109.041 142.947 108.869 142.634 108.715 142.338 108.577 142.06 108.454 141.801 108.347 141.56 108.253 141.339 108.172 141.138 108.104 140.958 108.047 140.798 108 140.659 107.963 140.541 107.934 140.446 107.913 140.372 107.898 140.32 107.889 140.291 107.884 138.427 107.651z" transform="translate(-132 -148) translate(0 148) translate(132.493)"/>
                    <path d="M104.564 101.92L106.494 101.92 106.507 101.919 106.532 101.918 106.568 101.915 106.615 101.909 106.674 101.9 106.744 101.887 106.825 101.87 106.917 101.848 107.02 101.82 107.132 101.786 107.255 101.745 107.388 101.696 107.53 101.64 107.681 101.574 107.84 101.499 108.008 101.414 108.183 101.319 108.366 101.213 108.555 101.095 108.751 100.966 108.952 100.824 109.159 100.669 109.37 100.501 109.584 100.32 109.693 100.224 109.72 100.199 109.734 100.187 109.736 100.185 109.534 98.781 109.532 98.78 109.515 98.772 109.482 98.756 109.351 98.694 109.093 98.581 108.843 98.479 108.602 98.389 108.369 98.31 108.144 98.241 107.93 98.181 107.724 98.131 107.529 98.089 107.345 98.055 107.17 98.028 107.007 98.007 106.855 97.993 106.714 97.983 106.585 97.979 106.467 97.978 106.36 97.98 106.266 97.985 106.183 97.991 106.113 97.999 106.054 98.007 106.006 98.015 105.971 98.022 105.947 98.027 105.935 98.03 104.083 98.575 102.974 95.987 104.646 95.022 104.657 95.015 104.677 95.001 104.707 94.981 104.745 94.952 104.792 94.915 104.846 94.869 104.908 94.814 104.976 94.748 105.051 94.673 105.132 94.587 105.218 94.49 105.308 94.382 105.403 94.261 105.5 94.129 105.601 93.984 105.704 93.827 105.808 93.657 105.913 93.474 106.018 93.277 106.123 93.067 106.226 92.844 106.328 92.606 106.427 92.356 106.522 92.091 106.568 91.953 106.58 91.919 106.585 91.901 106.586 91.899 105.709 90.784 105.706 90.784 105.688 90.785 105.651 90.788 105.507 90.8 105.227 90.831 104.96 90.868 104.706 90.91 104.464 90.958 104.236 91.01 104.02 91.066 103.817 91.125 103.627 91.187 103.45 91.249 103.286 91.313 103.134 91.377 102.995 91.441 102.868 91.503 102.754 91.563 102.651 91.622 102.56 91.677 102.481 91.728 102.412 91.775 102.355 91.817 102.308 91.853 102.271 91.884 102.244 91.908 102.226 91.924 102.217 91.933 100.885 93.331 98.631 91.644 99.596 89.972 99.602 89.961 99.613 89.939 99.628 89.906 99.647 89.862 99.669 89.806 99.693 89.74 99.719 89.661 99.746 89.57 99.773 89.467 99.8 89.353 99.825 89.226 99.85 89.087 99.871 88.935 99.89 88.772 99.905 88.596 99.915 88.408 99.92 88.209 99.92 87.998 99.912 87.775 99.898 87.541 99.876 87.295 99.845 87.039 99.805 86.773 99.756 86.496 99.727 86.354 99.719 86.318 99.715 86.3 99.715 86.297 98.398 85.77 98.38 85.782 98.35 85.803 98.231 85.886 98.004 86.052 97.791 86.217 97.592 86.382 97.407 86.544 97.235 86.703 97.076 86.86 96.93 87.012 96.796 87.16 96.674 87.303 96.564 87.44 96.464 87.572 96.376 87.696 96.297 87.814 96.228 87.923 96.168 88.025 96.117 88.118 96.074 88.202 96.038 88.277 96.01 88.342 95.987 88.397 95.97 88.442 95.959 88.476 95.952 88.5 95.948 88.512 95.493 90.388 92.698 90.054 92.698 88.124 92.698 88.111 92.696 88.086 92.693 88.05 92.687 88.003 92.678 87.944 92.666 87.874 92.649 87.793 92.627 87.701 92.599 87.598 92.565 87.486 92.523 87.363 92.475 87.23 92.418 87.088 92.352 86.937 92.277 86.778 92.192 86.61 92.097 86.435 91.991 86.252 91.873 86.063 91.744 85.867 91.602 85.666 91.447 85.459 91.279 85.248 91.098 85.034 91.002 84.925 90.978 84.897 90.965 84.884 90.964 84.882 89.559 85.084 89.55 85.103 89.534 85.136 89.473 85.267 89.359 85.525 89.258 85.774 89.167 86.016 89.088 86.249 89.019 86.473 88.96 86.688 88.909 86.893 88.867 87.089 88.833 87.273 88.806 87.448 88.786 87.611 88.771 87.763 88.762 87.904 88.757 88.033 88.756 88.151 88.758 88.257 88.763 88.352 88.769 88.435 88.777 88.505 88.785 88.564 88.793 88.611 88.8 88.647 88.806 88.671 88.809 88.683 89.353 90.535 86.765 91.644 85.8 89.972 85.793 89.961 85.78 89.941 85.759 89.911 85.73 89.873 85.693 89.826 85.647 89.772 85.592 89.71 85.527 89.642 85.451 89.567 85.365 89.486 85.268 89.4 85.16 89.31 85.04 89.215 84.907 89.118 84.763 89.017 84.605 88.914 84.435 88.81 84.252 88.705 84.055 88.6 83.845 88.495 83.622 88.392 83.385 88.29 83.134 88.191 82.869 88.096 82.732 88.05 82.697 88.038 82.679 88.033 82.677 88.032 81.562 88.909 81.562 88.909 81.563 88.93 81.566 88.967 81.579 89.111 81.609 89.391 81.646 89.658 81.689 89.912 81.736 90.154 81.789 90.382 81.845 90.598 81.904 90.801 81.965 90.991 82.028 91.168 82.091 91.332 82.155 91.484 82.219 91.623 82.281 91.75 82.342 91.864 82.4 91.967 82.455 92.058 82.506 92.137 82.553 92.206 82.595 92.263 82.632 92.31 82.662 92.347 82.686 92.374 82.703 92.392 82.712 92.401 84.109 93.733 82.422 95.987 80.75 95.022 80.739 95.016 80.717 95.005 80.684 94.99 80.64 94.971 80.585 94.949 80.518 94.925 80.439 94.899 80.348 94.872 80.246 94.845 80.131 94.818 80.004 94.793 79.865 94.768 79.713 94.747 79.55 94.728 79.374 94.713 79.187 94.703 78.987 94.698 78.776 94.698 78.553 94.706 78.319 94.72 78.074 94.742 77.818 94.773 77.551 94.813 77.274 94.862 77.132 94.891 77.096 94.899 77.078 94.903 77.076 94.903 76.549 96.22 76.55 96.222 76.56 96.238 76.581 96.268 76.664 96.387 76.83 96.614 76.996 96.827 77.16 97.026 77.322 97.211 77.482 97.383 77.638 97.542 77.79 97.688 77.938 97.822 78.081 97.944 78.219 98.054 78.35 98.154 78.474 98.242 78.592 98.321 78.702 98.39 78.803 98.45 78.896 98.501 78.98 98.544 79.055 98.58 79.12 98.608 79.175 98.631 79.22 98.647 79.254 98.659 79.278 98.666 79.29 98.67 81.166 99.125 80.832 101.92 78.902 101.92 78.889 101.92 78.865 101.922 78.829 101.925 78.781 101.931 78.722 101.94 78.652 101.952 78.571 101.969 78.479 101.991 78.377 102.019 78.264 102.053 78.141 102.094 78.008 102.143 77.867 102.2 77.716 102.266 77.556 102.341 77.388 102.426 77.213 102.521 77.03 102.627 76.841 102.745 76.645 102.874 76.444 103.016 76.238 103.171 76.027 103.338 75.812 103.52 75.703 103.616 75.676 103.64 75.662 103.653 75.66 103.654 75.862 105.059 75.881 105.068 75.914 105.084 76.046 105.145 76.303 105.259 76.553 105.36 76.794 105.45 77.028 105.53 77.252 105.599 77.467 105.658 77.672 105.709 77.867 105.751 78.052 105.785 78.226 105.812 78.389 105.832 78.541 105.847 78.682 105.856 78.812 105.861 78.93 105.862 79.036 105.86 79.13 105.855 79.213 105.849 79.284 105.841 79.343 105.833 79.39 105.825 79.425 105.818 79.449 105.812 79.462 105.809 81.314 105.265 82.422 107.853 80.75 108.818 80.739 108.825 80.719 108.838 80.689 108.859 80.651 108.888 80.605 108.925 80.55 108.971 80.488 109.026 80.42 109.091 80.345 109.167 80.264 109.253 80.179 109.35 80.088 109.458 79.994 109.578 79.896 109.711 79.795 109.855 79.692 110.013 79.588 110.183 79.483 110.366 79.378 110.563 79.273 110.773 79.17 110.996 79.068 111.233 78.97 111.484 78.874 111.749 78.828 111.886 78.817 111.921 78.811 111.939 79.687 113.056 79.688 113.056 79.708 113.055 79.745 113.052 79.889 113.039 80.169 113.009 80.436 112.972 80.69 112.929 80.932 112.881 81.161 112.829 81.376 112.773 81.579 112.714 81.769 112.653 81.946 112.59 82.111 112.527 82.262 112.463 82.401 112.399 82.528 112.337 82.643 112.276 82.745 112.218 82.836 112.163 82.916 112.112 82.984 112.065 83.041 112.023 83.088 111.986 83.125 111.956 83.152 111.932 83.17 111.915 83.18 111.906 84.511 110.509 86.765 112.196 85.8 113.868 85.794 113.879 85.783 113.901 85.768 113.934 85.749 113.978 85.727 114.033 85.703 114.1 85.677 114.179 85.651 114.27 85.623 114.372 85.597 114.487 85.571 114.614 85.547 114.753 85.525 114.904 85.506 115.068 85.492 115.244 85.481 115.431 85.476 115.631 85.477 115.842 85.484 116.065 85.498 116.299 85.52 116.544 85.551 116.8 85.591 117.067 85.641 117.344 85.669 117.486 85.677 117.522 85.681 117.54 85.681 117.542 86.999 118.069 87.001 118.068 87.016 118.058 87.046 118.037 87.165 117.954 87.392 117.788 87.605 117.622 87.804 117.458 87.989 117.296 88.161 117.136 88.32 116.98 88.466 116.828 88.6 116.68 88.722 116.537 88.833 116.399 88.932 116.268 89.021 116.143 89.099 116.026 89.168 115.916 89.228 115.815 89.279 115.722 89.322 115.638 89.358 115.563 89.387 115.498 89.409 115.443 89.426 115.398 89.437 115.363 89.445 115.34 89.448 115.328 89.903 113.452 92.698 113.786 92.698 115.716 92.699 115.729 92.7 115.753 92.703 115.789 92.709 115.837 92.718 115.896 92.731 115.966 92.748 116.047 92.77 116.139 92.797 116.241 92.832 116.354 92.873 116.477 92.921 116.61 92.978 116.751 93.044 116.902 93.119 117.062 93.204 117.23 93.299 117.405 93.405 117.588 93.523 117.777 93.652 117.973 93.794 118.174 93.949 118.38 94.117 118.591 94.298 118.806 94.394 118.915 94.419 118.942 94.431 118.956 94.433 118.958 95.837 118.756 95.838 118.753 95.846 118.737 95.862 118.704 95.923 118.572 96.037 118.315 96.139 118.065 96.229 117.824 96.308 117.59 96.377 117.366 96.437 117.151 96.487 116.946 96.529 116.751 96.563 116.566 96.59 116.392 96.611 116.229 96.625 116.077 96.634 115.936 96.639 115.806 96.64 115.688 96.638 115.582 96.633 115.488 96.627 115.405 96.619 115.334 96.611 115.275 96.603 115.228 96.596 115.193 96.591 115.169 96.587 115.156 96.043 113.304 98.631 112.196 99.596 113.868 99.603 113.879 99.617 113.899 99.637 113.929 99.666 113.967 99.703 114.013 99.749 114.068 99.804 114.129 99.87 114.198 99.945 114.273 100.031 114.354 100.128 114.439 100.236 114.53 100.357 114.624 100.489 114.722 100.634 114.823 100.791 114.926 100.961 115.03 101.144 115.135 101.341 115.24 101.551 115.345 101.774 115.448 102.012 115.55 102.262 115.648 102.527 115.744 102.664 115.79 102.699 115.801 102.717 115.807 103.834 114.931 103.834 114.928 103.833 114.91 103.83 114.873 103.818 114.729 103.787 114.449 103.75 114.182 103.708 113.928 103.66 113.686 103.607 113.457 103.552 113.241 103.493 113.039 103.431 112.849 103.369 112.672 103.305 112.507 103.241 112.356 103.177 112.216 103.115 112.09 103.054 111.975 102.996 111.873 102.941 111.782 102.89 111.702 102.843 111.634 102.801 111.577 102.765 111.53 102.734 111.493 102.71 111.465 102.694 111.448 102.685 111.438 101.287 110.106 102.974 107.853 104.646 108.818 104.657 108.824 104.679 108.835 104.712 108.85 104.756 108.869 104.811 108.891 104.878 108.915 104.957 108.941 105.048 108.967 105.151 108.995 105.265 109.021 105.392 109.047 105.531 109.071 105.683 109.093 105.846 109.112 106.022 109.126 106.21 109.137 106.409 109.142 106.62 109.141 106.843 109.134 107.077 109.12 107.323 109.098 107.579 109.067 107.845 109.027 108.122 108.977 108.264 108.949 108.3 108.941 108.318 108.937 108.848 107.619 108.836 107.602 108.815 107.572 108.732 107.453 108.566 107.226 108.401 107.013 108.236 106.814 108.074 106.629 107.915 106.457 107.758 106.298 107.606 106.152 107.458 106.018 107.315 105.896 107.177 105.785 107.046 105.686 106.922 105.597 106.804 105.519 106.695 105.45 106.593 105.39 106.5 105.339 106.416 105.296 106.341 105.26 106.276 105.231 106.221 105.209 106.176 105.192 106.142 105.181 106.118 105.173 106.106 105.17 104.23 104.715z" transform="translate(-132 -148) translate(0 148) translate(132.493)"/>
                    <path d="M220.004 93.885l.02-.327.096-.024.098-.025.1-.026.101-.027.104-.029.106-.03.109-.031.11-.032.112-.034.114-.035.116-.037.119-.038.12-.039.122-.04.125-.043.126-.043.128-.045.13-.047.132-.048.134-.05.136-.051.137-.053.14-.055.141-.057.143-.058.145-.06.147-.06.149-.064.15-.065.153-.067.153-.069.156-.07.157-.073.16-.074.16-.077.162-.078.164-.08.166-.082.167-.084.01-.006.007-.002h0v-.001l-.061-1.5h0l-.006-.003-.011-.005-.174-.07-.171-.069-.17-.066-.169-.065-.166-.063-.164-.061-.163-.06-.16-.058-.16-.056-.157-.054-.155-.053-.153-.05-.152-.05-.149-.048-.147-.046-.146-.045-.143-.043-.142-.042-.14-.04-.137-.04-.135-.036-.134-.036-.131-.035-.13-.033-.127-.032-.125-.03-.123-.03-.121-.028-.119-.027-.117-.026-.114-.025-.113-.023-.11-.022-.108-.022-.106-.02-.104-.019-.101-.018-.1-.017-.097-.016-.046-.324-.156-1.675-.014-.326.092-.034.095-.035.096-.037.099-.038.1-.039.102-.04.105-.043.106-.044.108-.045.11-.047.112-.048.113-.05.116-.052.117-.053.12-.055.12-.057.123-.058.125-.06.126-.062.128-.063.13-.066.13-.067.134-.069.135-.07.136-.073.138-.075.14-.076.14-.079.143-.08.145-.083.146-.084.147-.087.149-.088.15-.09.152-.093.153-.095.155-.097.156-.1.158-.1.01-.007.005-.003h0l-.217-1.486h0l-.007-.002-.01-.004-.18-.052-.179-.05-.176-.048-.174-.047-.172-.046-.17-.043-.168-.043-.166-.04-.164-.04-.161-.037-.16-.036-.158-.035-.156-.033-.153-.032-.152-.03-.15-.03-.146-.028-.145-.027-.143-.025-.141-.024-.139-.024-.136-.021-.135-.021-.132-.02-.13-.018-.127-.017-.126-.017-.123-.015-.121-.014-.119-.014-.116-.012-.115-.012-.112-.01-.11-.01-.107-.01-.105-.007-.103-.008-.1-.006-.099-.006-.08-.317-.33-1.65-.048-.323.088-.043.09-.045.093-.047.094-.048.095-.05.098-.05.1-.053.1-.055.103-.056.104-.058.107-.06.107-.062.11-.063.111-.065.113-.068.114-.068.116-.071.118-.073.119-.075.12-.076.123-.079.123-.08.125-.083.127-.084.128-.087.13-.088.13-.091.132-.093.134-.095.135-.097.136-.099.138-.101.139-.104.14-.106.14-.108.143-.11.144-.113.145-.115.146-.117.01-.007.004-.004h0l-.371-1.456h0-.007l-.011-.003-.185-.033-.182-.031-.18-.03-.178-.028-.176-.028-.173-.025-.172-.025-.17-.023-.166-.021-.165-.021-.163-.02-.16-.017-.159-.017-.156-.016-.154-.015-.151-.013-.15-.013-.147-.01-.144-.011-.143-.01-.14-.008-.138-.008-.136-.006-.133-.006-.132-.005-.128-.003-.127-.004-.124-.002-.122-.002H217.771l-.11.003-.108.002-.105.003-.103.003-.101.004-.099.005-.112-.307-.501-1.606-.082-.317.084-.052.085-.054.087-.056.088-.057.09-.06.092-.06.093-.064.095-.065.096-.067.098-.068.099-.07.1-.073.103-.075.104-.076.105-.079.107-.08.107-.083.11-.084.11-.087.112-.089.114-.09.114-.094.116-.095.117-.097.118-.1.12-.101.12-.104.122-.106.123-.109.124-.11.125-.113.126-.115.128-.118.128-.12.13-.122.13-.125.13-.127.133-.129.133-.132.008-.008.004-.004h0l-.52-1.41h-.001 0-.018l-.187-.014-.185-.012-.182-.01-.18-.01-.177-.01-.176-.007-.173-.006-.17-.005-.17-.004-.165-.004-.164-.002h-.162l-.159-.001h-.157l-.154.002-.153.002-.15.004-.147.004-.145.005-.143.005-.14.006-.138.007-.136.008-.133.008-.13.01-.13.009-.126.01-.123.01-.122.012-.119.011-.116.012-.114.013-.112.013-.11.013-.106.014-.105.014-.102.014-.1.014-.097.015-.145-.294-.666-1.544-.114-.307.078-.06.079-.063.08-.065.082-.066.083-.068.085-.07.086-.073.088-.075.088-.076.09-.079.092-.08.093-.083.094-.085.095-.087.096-.089.098-.09.098-.094.1-.096.101-.098.102-.1.103-.102.105-.104.105-.107.106-.109.107-.111.108-.114.11-.116.11-.118.11-.12.112-.124.113-.125.113-.128.115-.13.115-.133.115-.135.117-.137.117-.14.118-.143.118-.144.008-.01.004-.004h0l-.666-1.347h0-.018l-.187.007-.185.007-.183.008-.18.01-.177.01-.175.01-.173.012-.17.013-.169.013-.165.014-.163.015-.161.016-.159.016-.155.018-.154.017-.151.019-.149.018-.146.02-.144.02-.141.02-.14.021-.136.022-.134.021-.131.023-.13.022-.126.023-.125.023-.122.024-.12.024-.116.024-.115.024-.112.024-.11.025-.108.024-.105.025-.102.025-.1.025-.098.024-.095.025-.174-.277-.824-1.466-.146-.293.07-.068.073-.071.073-.073.075-.074.075-.077.077-.08.078-.08.08-.083.08-.086.081-.087.083-.09.083-.092.085-.094.085-.096.087-.099.087-.1.089-.104.09-.105.09-.108.09-.11.092-.113.093-.114.094-.117.094-.12.095-.122.096-.124.096-.127.097-.129.098-.131.098-.134.099-.137.1-.139.1-.141.1-.144.101-.147.101-.149.102-.151.103-.154.102-.157.007-.01.003-.004v-.001h0l-.802-1.27h0-.001l-.006.002-.012.001-.185.026-.183.026-.18.028-.179.028-.175.028-.174.03-.17.03-.168.03-.166.03-.163.032-.16.032-.16.032-.155.033-.153.033-.151.034-.148.034-.146.034-.144.035-.14.035-.14.035-.135.035-.134.036-.13.036-.13.035-.126.036-.123.036-.122.037-.118.036-.117.036-.114.036-.111.036-.11.036-.106.036-.104.035-.102.036-.1.035-.096.035-.095.035-.092.035-.202-.257-.973-1.373-.175-.275.063-.076.064-.078.065-.08.067-.082.067-.084.068-.086.07-.09.07-.09.07-.093.072-.096.073-.098.073-.1.075-.102.075-.105.075-.107.077-.11.077-.112.078-.114.078-.116.08-.12.079-.12.08-.125.08-.126.082-.129.082-.13.082-.134.083-.136.083-.139.083-.141.084-.144.084-.146.084-.148.085-.151.085-.154.085-.156.086-.159.085-.161.086-.164.085-.166.006-.01.002-.006h0v-.001l-.93-1.178h0-.001l-.006.001-.011.003-.182.045-.18.046-.176.046-.174.046-.172.047-.169.047-.166.047-.165.048-.161.048-.16.048-.156.049-.154.049-.151.049-.15.049-.146.05-.144.048-.141.05-.139.05-.137.049-.134.05-.131.048-.13.05-.126.049-.124.05-.122.048-.12.049-.116.048-.114.049-.112.048-.11.048-.107.047-.105.047-.102.047-.1.046-.097.046-.096.046-.092.045-.09.045-.089.044-.228-.235-1.11-1.263-.204-.256.055-.082.056-.084.056-.086.058-.089.058-.09.059-.094.06-.095.06-.098.06-.1.062-.103.062-.105.062-.107.063-.11.064-.112.064-.114.065-.117.065-.12.065-.12.066-.125.066-.127.067-.129.067-.131.067-.134.067-.137.068-.139.067-.141.068-.144.069-.147.068-.149.068-.151.068-.154.069-.157.068-.159.069-.162.068-.164.068-.167.069-.169.068-.172.067-.174.005-.011.002-.006h0l-1.05-1.075h0l-.006.002-.01.004-.177.064-.173.064-.171.064-.168.064-.166.065-.163.064-.161.065-.158.065-.156.064-.153.065-.15.065-.149.064-.145.065-.143.064-.14.065-.139.064-.135.064-.133.063-.131.064-.128.063-.126.063-.123.062-.12.062-.12.062-.115.062-.114.06-.11.061-.11.06-.106.06-.104.059-.101.058-.1.058-.097.057-.094.057-.092.056-.09.055-.088.055-.085.053-.083.053-.251-.21-1.237-1.14-.229-.233.046-.087.047-.09.047-.09.048-.095.048-.096.05-.1.048-.1.05-.104.05-.106.05-.108.051-.111.051-.113.051-.116.052-.118.052-.12.052-.124.052-.125.052-.128.053-.13.053-.133.052-.135.053-.138.053-.14.052-.143.053-.145.053-.148.052-.15.053-.153.052-.156.052-.157.052-.16.052-.164.05-.165.052-.168.05-.17.051-.174.05-.175.05-.178.05-.18.003-.012.001-.006h0l-1.156-.96h0l-.006.003-.01.005-.169.082-.166.082-.163.082-.16.081-.159.082-.155.08-.153.082-.15.08-.149.081-.145.08-.143.08-.14.08-.139.08-.135.079-.133.079-.131.078-.128.077-.126.078-.123.076-.121.077-.118.075-.116.075-.114.075-.111.074-.11.073-.106.072-.104.072-.102.071-.1.07-.096.07-.095.069-.093.068-.09.067-.088.066-.086.065-.084.065-.081.063-.08.062-.077.062-.271-.182-1.35-1.005-.251-.208.036-.092.037-.093.038-.096.038-.099.038-.1.038-.104.038-.106.039-.108.038-.11.039-.114.039-.115.039-.118.039-.12.039-.124.039-.125.039-.128.038-.13.04-.132.038-.136.038-.137.038-.14.038-.143.038-.145.038-.147.037-.15.037-.153.036-.155.036-.157.036-.16.035-.163.035-.164.035-.168.033-.17.034-.172.033-.175.032-.177.031-.18.03-.182.031-.185.002-.012v-.006h.001l-1.25-.833h0l-.006.003-.01.006-.158.1-.157.098-.154.098-.151.098-.149.098-.146.097-.144.096-.141.097-.139.095-.136.095-.134.095-.131.094-.13.093-.126.093-.124.092-.122.091-.119.091-.117.09-.114.09-.113.088-.11.087-.107.087-.105.086-.103.085-.1.084-.1.084-.095.082-.094.081-.092.08-.09.08-.086.078-.085.077-.083.076-.081.075-.079.074-.076.073-.074.072-.073.07-.07.07-.289-.154-1.447-.858-.272-.18.027-.095.027-.097.027-.1.027-.102.028-.104.027-.107.027-.11.027-.11.027-.115.026-.116.027-.12.026-.12.027-.124.025-.127.026-.128.025-.131.025-.134.025-.136.024-.138.024-.141.023-.143.023-.146.023-.148.022-.151.021-.153.02-.156.02-.157.02-.16.02-.164.017-.165.018-.167.016-.17.016-.173.015-.175.015-.177.013-.18.013-.182.011-.185.01-.186.002-.012v-.006h0v-.001l-1.33-.698h0l-.005.004-.01.008-.148.115-.145.114-.142.114-.14.113-.138.113-.136.112-.133.11-.13.111-.128.11-.126.109-.123.108-.12.107-.12.106-.115.106-.114.104-.112.104-.109.102-.107.102-.104.1-.103.1-.1.1-.098.097-.095.096-.094.095-.091.095-.09.093-.086.092-.085.09-.083.09-.08.088-.079.087-.076.086-.075.084-.072.083-.07.082-.07.08-.066.079-.064.078-.063.076-.303-.122-1.529-.702-.29-.151.017-.097.017-.1.017-.102.016-.104.016-.107.016-.109.016-.111.015-.114.015-.116.014-.119.014-.12.014-.124.013-.126.012-.128.012-.131.012-.133.01-.135.011-.138.01-.14.009-.143.008-.145.007-.147.007-.15.006-.152.006-.155.004-.156.003-.16.003-.161.002-.164v-.505l-.003-.174-.003-.175-.005-.178-.005-.18-.007-.183-.007-.184-.01-.187V23.347h0v-.001l-1.396-.555h0l-.005.005-.008.008-.135.13-.133.129-.13.128-.127.127-.126.127-.123.125-.12.124-.118.124-.116.122-.114.121-.11.12-.11.12-.107.118-.104.117-.102.116-.1.115-.098.113-.096.113-.093.11-.092.11-.089.11-.087.106-.085.106-.083.105-.081.103-.08.102-.076.1-.075.1-.073.097-.07.096-.07.095-.067.093-.065.092-.063.09-.062.089-.06.087-.057.085-.056.084-.055.082-.314-.089-1.594-.539-.304-.12.007-.098.006-.1.006-.104.005-.105.005-.108.005-.11.003-.112.004-.115.002-.117.002-.12.001-.122.001-.124v-.126l-.001-.13-.002-.13-.002-.134-.004-.136-.004-.138-.005-.14-.006-.143-.007-.145-.008-.147-.008-.15-.01-.152-.011-.154-.012-.156-.014-.16-.014-.16-.015-.163-.017-.165-.018-.168-.019-.17-.02-.172-.022-.174-.023-.177-.024-.178-.025-.18-.027-.184-.029-.185-.002-.011v-.007h0l-1.447-.406h0l-.004.005-.008.01-.12.142-.119.142-.115.141-.114.14-.111.14-.11.137-.106.136-.105.135-.102.134-.1.132-.099.132-.096.13-.093.128-.092.128-.09.126-.087.124-.086.123-.083.122-.081.12-.08.119-.077.117-.076.116-.073.114-.072.113-.07.111-.067.11-.066.108-.064.106-.063.105-.06.103-.06.101-.056.1-.055.098-.054.096-.052.095-.05.093-.049.09-.047.09-.045.087-.322-.056-1.641-.369-.315-.087-.004-.099-.004-.1-.005-.104-.006-.105-.006-.108-.007-.11-.008-.112-.009-.114-.01-.117-.01-.12-.012-.12-.012-.124-.013-.126-.015-.128-.015-.13-.017-.133-.017-.134-.019-.137-.02-.14-.02-.14-.022-.144-.024-.146-.024-.148-.026-.15-.027-.152-.028-.154-.03-.157-.03-.158-.033-.161-.034-.163-.035-.165-.037-.166-.038-.17-.04-.17-.041-.173-.043-.175-.044-.178-.046-.179-.048-.18-.003-.012-.001-.006h0l-1.481-.253h0l-.004.005-.007.01-.104.155-.103.154-.1.152-.1.151-.095.15-.095.148-.092.147-.09.145-.087.144-.086.142-.084.141-.082.14-.08.137-.078.136-.075.135-.074.133-.073.131-.07.13-.068.128-.067.127-.064.124-.063.123-.062.122-.059.12-.058.117-.056.116-.054.114-.053.113-.05.11-.05.11-.048.106-.046.105-.045.104-.043.1-.042.1-.04.098-.039.096-.037.093-.036.092-.327-.022-1.67-.196-.323-.054-.014-.097-.014-.1-.016-.102-.017-.104-.017-.107-.019-.108-.02-.111-.02-.113-.022-.115-.023-.117-.024-.12-.025-.121-.027-.124-.027-.126-.03-.128-.03-.13-.031-.132-.033-.134-.034-.137-.036-.138-.037-.14-.038-.143-.04-.145-.04-.146-.044-.149-.044-.15-.046-.152-.047-.155-.05-.156-.05-.159-.052-.16-.054-.162-.056-.164-.057-.166-.06-.168-.06-.17-.063-.17-.064-.174-.066-.175-.005-.011-.002-.006h0l-1.499-.097h0l-.003.006-.006.01-.088.166-.086.163-.084.162-.082.16-.08.16-.078.157-.076.155-.075.154-.072.152-.07.151-.07.149-.066.147-.065.145-.063.144-.062.142-.06.14-.057.138-.057.136-.054.135-.053.132-.051.131-.05.13-.048.126-.047.125-.045.124-.044.12-.042.12-.04.117-.04.116-.037.113-.037.112-.035.109-.033.107-.033.106-.03.103-.03.101-.03.1-.027.096-.026.095-.327.013-1.682-.02-.326-.02-.024-.096-.025-.098-.026-.1-.028-.101-.028-.104-.03-.106-.031-.108-.033-.11-.033-.113-.036-.114-.036-.116-.038-.119-.039-.12-.04-.122-.043-.124-.043-.127-.046-.128-.046-.13-.048-.132-.05-.134-.052-.136-.053-.137-.054-.14-.057-.141-.058-.143-.06-.145-.061-.147-.063-.149-.066-.15-.066-.152-.07-.154-.07-.156-.072-.157-.075-.16-.076-.16-.078-.162-.08-.164-.083-.166-.084-.167-.005-.01-.003-.007h0l-1.5.061h0l-.001.001-.002.005-.005.011-.07.174-.069.172-.066.17-.065.168-.063.166-.062.164-.06.163-.057.16-.056.16-.054.157-.053.155-.051.153-.05.152-.047.15-.047.147-.044.145-.044.144-.041.141-.04.14-.04.137-.037.136-.036.133-.034.131-.034.13-.032.127-.03.125-.03.123-.028.121-.027.119-.025.117-.025.114-.023.113-.023.11-.02.108-.02.106-.02.104-.018.101-.017.1-.016.097-.324.046-1.675.156-.327.015-.033-.093-.035-.095-.037-.096-.038-.099-.04-.1-.04-.102-.042-.105-.044-.106-.045-.108-.047-.11-.049-.112-.05-.113-.051-.116-.053-.117-.055-.12-.057-.12-.058-.123-.06-.124-.062-.127-.063-.128-.066-.13-.067-.13-.069-.134-.07-.135-.073-.136-.075-.138-.077-.14-.078-.14-.08-.143-.083-.145-.084-.146-.087-.147-.088-.149-.091-.15-.093-.152-.094-.153-.097-.155-.1-.156-.1-.158-.007-.01-.003-.004v-.001h0l-1.487.217h0v.001l-.002.006-.003.01-.052.18-.05.179-.049.176-.047.174-.045.172-.044.17-.042.168-.04.166-.04.164-.037.162-.036.16-.035.157-.034.156-.032.153-.03.152-.03.15-.027.146-.027.146-.026.142-.024.141-.023.139-.022.136-.02.135-.02.132-.018.13-.018.127-.016.126-.015.123-.015.121-.013.119-.013.116-.011.115-.01.112-.01.11-.01.107-.008.105-.007.103-.007.1-.005.099-.317.08-1.65.33-.323.048-.044-.088-.044-.09-.047-.093-.048-.094-.05-.095-.05-.098-.054-.1-.054-.1-.057-.103-.058-.104-.06-.107-.061-.107-.064-.11-.065-.111-.067-.113-.069-.114-.07-.116-.073-.118-.075-.119-.076-.12-.079-.123-.08-.123-.083-.125-.084-.127-.087-.128-.089-.13-.09-.13-.093-.132-.095-.134-.097-.135-.1-.136-.1-.138-.104-.138-.106-.14-.108-.142-.11-.142-.113-.144-.115-.145-.117-.146-.007-.01-.004-.004h0l-1.456.371h0l-.001.007-.002.011-.033.185-.031.182-.03.18-.029.178-.027.176-.026.173-.024.172-.023.17-.022.166-.02.165-.02.163-.018.16-.017.159-.015.156-.015.154-.013.151-.013.15-.011.147-.01.145-.01.142-.008.14-.008.138-.006.136-.006.133-.005.132-.004.128-.003.127-.002.124-.002.122V25.168l.002.11.003.108.003.105.003.104.004.1.004.099-.306.112-1.606.501-.317.082-.052-.084-.054-.085-.056-.086-.058-.089-.059-.09-.061-.092-.063-.093-.065-.095-.067-.096-.069-.098-.07-.099-.073-.1-.074-.103-.077-.104-.078-.105-.08-.106-.083-.108-.085-.11-.086-.11-.089-.112-.09-.114-.094-.114-.095-.116-.097-.117-.1-.118-.101-.12-.104-.12-.106-.122-.109-.123-.11-.124-.113-.125-.116-.126-.117-.128-.12-.128-.122-.13-.125-.13-.127-.13-.13-.133-.13-.133-.01-.008-.003-.004h0-.001l-1.408.52v.001h0v.007l-.002.011-.013.187-.012.185-.011.182-.01.18-.008.177-.008.176-.006.173-.005.17-.005.17-.003.165-.002.164-.001.162v.316l.002.154.002.153.003.15.004.147.005.145.006.143.006.14.007.138.008.136.008.133.01.131.009.128.01.127.01.123.012.122.011.119.012.116.013.114.013.112.013.11.013.107.014.104.015.102.014.1.015.098-.294.144-1.545.666-.306.114-.06-.078-.063-.079-.065-.08-.066-.082-.069-.083-.07-.085-.073-.086-.074-.088-.077-.088-.078-.09-.08-.092-.083-.093-.085-.094-.087-.095-.089-.096-.091-.098-.093-.098-.096-.1-.098-.101-.1-.102-.102-.103-.104-.105-.107-.105-.11-.106-.11-.107-.114-.108-.116-.11-.118-.11-.12-.11-.124-.112-.125-.113-.128-.113-.13-.115-.133-.115-.135-.115-.137-.117-.14-.117-.143-.118-.145-.118-.009-.008-.004-.004h-.001 0l-1.346.666h0v.018l.006.188.008.184.008.183.01.18.01.177.01.175.012.173.012.17.014.169.014.165.015.163.016.161.016.159.017.156.018.153.018.151.02.149.019.146.02.144.02.141.021.14.021.136.022.134.022.131.023.13.023.127.023.124.024.122.023.12.024.116.025.115.024.112.024.11.025.108.025.105.024.102.025.1.025.098.025.095-.277.174-1.467.824-.292.146-.069-.07-.07-.073-.073-.073-.075-.075-.076-.075-.08-.077-.08-.078-.084-.08-.085-.08-.087-.081-.09-.083-.092-.083-.094-.085-.096-.085-.1-.087-.1-.087-.103-.089-.106-.09-.107-.09-.11-.09-.113-.092-.115-.093-.117-.094-.12-.094-.121-.095-.124-.096-.127-.096-.13-.097-.13-.098-.135-.098-.136-.099-.14-.1-.14-.1-.145-.1-.146-.1-.149-.102-.151-.102-.154-.103-.157-.102-.01-.007-.005-.003h0l-1.27.803h0l.001.006.002.012.026.185.026.183.027.18.028.179.029.175.029.174.03.17.03.168.031.166.032.163.032.161.032.158.033.156.033.153.034.151.034.149.034.145.035.144.035.14.035.14.035.135.036.134.035.13.036.13.036.126.036.123.036.122.036.118.037.117.036.114.036.111.036.11.035.106.036.104.036.102.035.1.035.097.035.094.035.092-.257.202-1.373.973-.276.176-.075-.064-.078-.064-.08-.065-.082-.067-.084-.067-.087-.068-.089-.07-.09-.07-.094-.07-.095-.072-.098-.073-.1-.073-.103-.075-.104-.075-.108-.075-.11-.077-.11-.077-.115-.078-.117-.078-.119-.08-.121-.079-.124-.08-.126-.08-.129-.082-.131-.082-.134-.082-.136-.083-.138-.083-.141-.083-.144-.084-.146-.084-.149-.084-.15-.085-.154-.085-.156-.085-.16-.085-.16-.086-.164-.086-.167-.085-.01-.006-.005-.002h-.001 0l-1.178.93h0v.001l.001.006.003.011.045.182.045.18.046.176.047.174.046.172.048.169.047.167.048.164.048.161.048.16.049.156.049.154.049.151.049.15.049.146.05.144.049.141.049.14.05.136.049.134.05.131.049.13.049.126.049.124.049.122.049.12.048.116.048.114.049.112.047.11.048.107.047.105.047.102.046.1.046.098.046.095.045.093.044.09.045.088-.235.228-1.263 1.11-.256.204-.082-.055-.084-.056-.086-.056-.089-.058-.09-.058-.094-.059-.095-.06-.098-.06-.1-.06-.103-.062-.105-.062-.107-.062-.11-.063-.112-.064-.114-.064-.117-.065-.12-.065-.121-.065-.124-.066-.127-.066-.129-.067-.131-.067-.134-.067-.137-.067-.139-.068-.141-.067-.144-.068-.147-.068-.149-.069-.151-.068-.154-.068-.157-.069-.16-.068-.16-.069-.165-.068-.167-.068-.17-.068-.171-.069-.175-.067-.01-.005-.006-.002h0l-1.075 1.05h0l.002.006.004.01.064.177.064.173.064.171.064.168.065.166.064.164.065.16.064.158.065.156.065.153.064.15.065.149.065.145.064.143.064.14.064.139.064.135.064.134.063.13.064.128.062.126.063.123.062.121.062.118.061.116.061.114.06.11.06.11.06.106.06.104.058.102.058.099.057.097.057.094.055.092.056.09.054.088.054.085.053.083-.21.251-1.14 1.237-.233.229-.087-.046-.09-.047-.091-.047-.094-.048-.097-.048-.098-.049-.102-.05-.103-.049-.106-.05-.109-.05-.11-.051-.114-.051-.115-.051-.118-.052-.12-.052-.124-.052-.125-.052-.128-.052-.13-.053-.133-.052-.136-.053-.137-.053-.14-.053-.143-.052-.146-.053-.148-.053-.15-.052-.153-.053-.155-.052-.158-.052-.16-.052-.163-.051-.165-.052-.168-.051-.17-.05-.174-.051-.175-.05-.178-.05-.181-.05-.011-.002-.006-.002h0-.001l-.959 1.156h0l.003.006.005.01.082.169.082.166.081.163.082.16.081.159.082.155.08.153.082.15.08.149.08.145.08.143.08.14.08.139.079.135.078.134.078.13.078.128.077.126.077.123.076.121.076.118.075.116.075.114.073.111.074.11.072.106.072.104.071.102.07.1.07.097.069.094.067.093.068.09.066.089.065.085.064.084.064.081.062.08.062.077-.183.271-1.004 1.35-.208.252-.092-.037-.094-.037-.096-.038-.098-.038-.101-.037-.104-.039-.105-.038-.109-.039-.11-.038-.113-.039-.116-.039-.118-.039-.12-.039-.123-.039-.125-.039-.128-.038-.13-.04-.133-.038-.135-.039-.137-.038-.14-.038-.143-.038-.145-.038-.148-.038-.15-.037-.152-.037-.155-.036-.157-.036-.16-.036-.163-.035-.165-.035-.167-.035-.17-.033-.172-.034-.175-.032-.178-.033-.18-.031-.182-.03-.184-.031-.012-.002h-.006 0l-.834 1.249h0l.004.006.006.01.1.159.098.156.098.154.098.151.097.149.098.146.096.144.096.141.096.139.095.136.095.134.094.131.093.13.093.126.092.124.091.122.09.119.09.117.09.115.089.112.087.11.087.107.086.105.085.103.084.1.083.1.083.095.081.094.08.092.08.09.078.086.077.085.076.083.075.081.074.079.073.076.071.074.07.073.07.07-.153.289-.858 1.447-.18.272-.095-.027-.097-.027-.1-.027-.102-.027-.104-.027-.107-.028-.11-.027-.111-.027-.114-.027-.117-.026-.118-.027-.122-.026-.124-.026-.126-.026-.128-.026-.132-.025-.133-.025-.136-.025-.139-.024-.14-.024-.144-.023-.145-.023-.149-.023-.15-.022-.153-.02-.156-.022-.158-.02-.16-.02-.163-.018-.165-.018-.168-.018-.17-.016-.172-.016-.175-.015-.177-.015-.18-.013-.182-.013-.185-.011-.187-.01-.011-.001h-.007 0l-.698 1.33h0l.004.005.007.009.115.148.115.145.114.142.113.14.112.139.112.135.111.133.11.13.11.128.11.126.107.123.107.12.107.12.105.115.105.114.103.112.103.109.102.107.1.104.1.103.099.1.097.098.097.095.095.094.094.091.093.09.092.086.091.085.09.083.088.08.087.079.085.076.085.075.083.072.081.07.08.07.08.066.077.064.076.063-.121.303-.703 1.529-.15.29-.098-.017-.1-.017-.101-.017-.104-.016-.107-.016-.109-.016-.111-.016-.114-.015-.116-.015-.12-.014-.12-.014-.124-.014-.125-.013-.129-.012-.13-.012-.133-.012-.136-.01-.138-.011-.14-.01-.142-.009-.145-.008-.148-.007-.15-.007-.151-.006-.155-.005-.157-.005-.159-.003-.161-.003-.164-.002h-.505l-.174.003-.176.003-.177.005-.18.005-.183.007-.185.008-.187.008-.011.001h-.007 0l-.555 1.396h0l.005.005.008.008.13.135.129.133.128.13.127.127.126.126.126.123.124.12.123.118.123.116.121.114.12.111.12.109.118.107.117.104.116.102.115.1.113.098.112.096.111.093.11.092.109.09.107.086.106.085.105.083.103.081.102.08.1.076.1.075.097.073.096.07.095.07.093.067.092.065.09.064.088.061.087.06.086.057.084.057.082.054-.09.314-.538 1.594-.12.304-.098-.007-.1-.006-.104-.006-.105-.005-.108-.005-.11-.005-.113-.003-.114-.004-.118-.002-.119-.002-.122-.001h-.379l-.132.002-.133.002-.136.004-.138.004-.14.005-.143.006-.145.007-.148.008-.15.009-.151.01-.154.01-.157.012-.158.014-.161.014-.163.015-.166.017-.167.018-.17.019-.172.02-.174.022-.177.023-.178.024-.181.025-.183.027-.185.029-.012.002h-.006 0l-.406 1.447h0l.005.004.009.008.143.12.142.119.141.116.14.113.139.112.137.109.137.106.135.105.134.103.132.1.131.098.13.096.13.094.126.091.126.09.125.087.123.086.122.083.12.082.119.079.117.077.116.076.114.073.113.072.11.07.11.067.108.066.107.065.104.062.104.06.1.06.1.056.099.055.096.054.094.052.093.05.091.049.09.047.087.045-.056.322-.37 1.641-.087.315-.098.004-.1.004-.104.005-.105.006-.108.006-.11.007-.112.008-.115.01-.116.009-.12.01-.12.012-.124.012-.126.014-.128.014-.13.015-.133.017-.135.017-.137.019-.139.02-.141.02-.144.022-.145.024-.148.024-.15.026-.152.027-.155.028-.156.03-.159.03-.16.033-.163.034-.165.035-.167.037-.169.038-.17.04-.174.041-.175.043-.177.044-.179.046-.181.048-.011.003-.006.001h0l-.253 1.481h0l.005.004.01.007.155.105.154.102.152.1.151.1.15.096.148.094.147.092.145.09.144.087.142.086.14.084.14.082.138.08.136.078.135.076.133.074.131.072.13.07.128.068.126.067.125.065.123.062.121.062.12.059.118.058.116.056.114.054.113.053.11.05.109.05.107.048.105.046.103.045.102.043.1.042.097.04.095.039.094.037.092.036-.022.327-.196 1.67-.054.323-.098.014-.1.014-.101.016-.104.017-.107.017-.108.019-.111.02-.113.02-.115.022-.118.023-.12.024-.12.025-.124.027-.126.028-.128.028-.13.03-.132.032-.135.033-.136.034-.138.036-.14.037-.143.038-.145.04-.146.041-.149.043-.15.044-.153.046-.154.047-.157.05-.158.05-.16.052-.162.054-.164.056-.166.057-.168.06-.17.06-.171.063-.173.064-.175.066-.011.005-.006.002h0l-.097 1.499h0l.006.003.01.006.165.088.164.086.162.084.16.082.16.08.156.078.156.076.154.075.152.072.15.07.15.07.147.066.145.065.143.063.142.062.14.06.138.057.137.057.134.054.133.053.13.051.13.05.127.048.125.047.123.045.122.044.119.042.117.04.116.04.113.037.111.037.11.035.107.033.105.033.104.03.1.03.1.03.097.027.095.026.012.327-.02 1.682-.02.326-.095.024-.098.025-.1.026-.102.028-.104.028-.106.03-.108.031-.11.033-.112.034-.114.035-.117.036-.118.038-.12.04-.122.04-.125.042-.126.044-.128.045-.13.046-.132.049-.134.05-.136.05-.138.054-.14.054-.14.057-.144.058-.145.06-.147.061-.148.063-.15.066-.153.066-.154.07-.155.07-.158.072-.159.075-.16.076-.163.078-.164.08-.165.083-.167.084-.01.005-.007.003h0l.06 1.5h.001v.001l.006.002.011.005.174.07.171.069.17.067.168.064.167.063.164.062.163.06.16.057.16.056.157.054.155.053.153.051.151.05.15.047.147.047.146.044.143.044.142.041.14.04.137.04.135.037.134.036.131.034.13.034.127.032.125.03.123.03.12.028.12.027.116.025.115.025.112.023.11.023.109.02.106.021.104.02.101.017.1.017.097.016.046.324.156 1.675.014.327-.092.033-.095.036-.096.036-.099.038-.1.04-.103.04-.104.042-.106.044-.108.045-.11.047-.112.049-.114.05-.115.051-.117.054-.12.054-.12.057-.123.058-.125.06-.126.062-.128.064-.13.065-.131.067-.133.069-.135.07-.136.074-.138.074-.14.077-.14.078-.144.08-.144.083-.146.084-.147.087-.15.088-.15.091-.151.093-.154.095-.154.096-.156.1-.158.1-.01.007-.005.003h0l.217 1.487h0l.006.002.012.003.18.052.177.05.176.049.174.047.172.045.17.044.168.042.166.04.164.04.162.037.16.037.158.034.156.034.153.032.152.03.149.03.147.027.145.027.143.026.141.024.139.023.136.022.134.02.132.02.13.018.128.018.126.016.123.015.12.015.12.013.116.013.114.011.112.01.11.01.108.01.105.008.103.007.1.007.099.006.08.317.33 1.649.048.323-.088.044-.09.044-.093.047-.094.048-.096.05-.097.05-.1.054-.1.054-.103.057-.105.058-.106.06-.108.061-.11.064-.11.065-.113.067-.114.069-.116.07-.118.073-.119.075-.12.076-.123.079-.123.08-.126.083-.126.084-.128.087-.13.089-.13.09-.133.093-.133.095-.135.097-.136.1-.138.1-.139.104-.14.106-.141.108-.143.11-.143.113-.145.115-.146.117-.01.007-.004.004h0l.37 1.456h.002l.005.001.012.002.184.033.183.031.18.03.178.029.175.027.174.026.172.024.169.023.167.022.165.02.163.02.16.018.158.017.157.015.153.015.152.013.15.013.146.011.145.01.143.01.14.008.138.008.136.006.133.006.131.005.13.004.126.003.124.002.122.002h.12l.116.001h.115l.113-.002.11-.001.108-.003.105-.003.103-.003.101-.004.098-.004.113.307.5 1.605.083.317-.084.052-.085.054-.087.056-.088.058-.09.059-.092.061-.093.063-.095.065-.096.067-.098.069-.1.07-.1.073-.102.074-.104.077-.105.078-.107.08-.108.083-.109.085-.11.086-.113.09-.113.09-.114.093-.116.095-.117.097-.118.1-.12.101-.12.104-.122.107-.123.108-.124.11-.125.113-.127.116-.127.117-.128.12-.13.122-.13.125-.13.127-.133.13-.133.131-.008.008-.004.004v.001h0l.52 1.408h.002l.005.001h.012l.187.014.184.012.183.011.18.01.177.009.176.007.173.006.17.006.169.004.166.003.164.002.162.001h.316l.154-.002.152-.002.15-.003.148-.004.145-.005.143-.006.14-.006.138-.007.136-.008.133-.008.13-.01.13-.009.125-.01.124-.01.121-.011.12-.012.116-.012.114-.013.112-.013.11-.013.106-.013.105-.014.102-.014.1-.015.097-.015.144.294.666 1.545.115.306-.078.06-.079.063-.08.065-.082.066-.084.069-.084.07-.086.073-.088.074-.089.077-.09.078-.091.08-.093.083-.094.085-.095.087-.096.089-.098.091-.099.094-.1.095-.1.098-.102.1-.104.102-.104.104-.105.107-.106.11-.108.11-.108.114-.109.116-.11.118-.11.12-.113.124-.112.125-.114.128-.114.13-.115.133-.116.135-.116.137-.117.14-.118.143-.119.145-.007.009-.004.004v.001h0l.666 1.346H81.1l.187-.006.185-.008.182-.008.18-.009.178-.01.175-.011.173-.012.17-.012.168-.014.166-.014.163-.015.16-.016.16-.016.155-.017.154-.018.15-.018.15-.02.146-.019.144-.02.141-.02.139-.02.136-.022.135-.022.131-.022.13-.023.126-.023.125-.023.122-.024.12-.023.116-.024.115-.024.112-.025.11-.024.107-.025.105-.025.103-.024.1-.025.098-.025.095-.025.174.277.824 1.467.146.292-.071.069-.072.07-.073.073-.075.075-.076.076-.077.08-.078.08-.079.084-.08.085-.082.087-.082.09-.084.092-.084.094-.086.097-.086.098-.088.101-.088.103-.09.106-.09.107-.09.11-.093.113-.092.115-.094.117-.094.12-.095.121-.096.124-.096.127-.097.13-.098.13-.098.135-.1.136-.099.14-.1.14-.1.145-.101.146-.102.149-.102.151-.102.154-.103.157-.006.01-.003.005h0l.802 1.27h.001l.006-.001.012-.002.185-.026.183-.026.18-.027.179-.028.175-.029.173-.029.17-.03.17-.03.165-.031.163-.032.16-.031.159-.033.156-.033.153-.033.15-.034.15-.034.145-.034.144-.035.14-.035.139-.035.136-.035.134-.036.13-.035.13-.036.125-.036.124-.036.121-.036.12-.036.116-.036.114-.037.111-.036.11-.036.106-.035.104-.036.102-.036.1-.035.096-.035.095-.035.092-.035.202.257.973 1.373.175.276-.063.075-.064.078-.066.08-.066.082-.067.084-.068.087-.07.089-.07.09-.07.094-.072.095-.073.098-.074.1-.074.103-.075.105-.076.107-.076.11-.077.111-.078.114-.078.117-.08.119-.08.121-.08.124-.08.126-.081.129-.082.131-.082.134-.083.136-.083.138-.083.141-.084.144-.084.146-.085.149-.084.15-.085.154-.085.157-.086.158-.085.162-.086.163-.086.167-.005.01-.003.006h0l.931 1.179h.001l.006-.002.011-.003.182-.045.18-.045.176-.046.174-.047.172-.046.169-.047.166-.048.164-.048.162-.048.159-.048.156-.049.154-.048.152-.05.149-.049.146-.049.144-.05.142-.048.139-.05.136-.05.134-.049.132-.05.13-.048.126-.05.124-.049.122-.049.119-.049.117-.048.114-.048.112-.049.11-.047.107-.048.104-.047.103-.047.1-.046.097-.046.095-.046.093-.045.09-.044.089-.044.228.234 1.11 1.263.204.256-.055.082-.056.084-.057.086-.057.089-.058.09-.059.094-.06.095-.06.098-.06.1-.062.103-.062.105-.063.107-.063.11-.063.112-.064.114-.065.117-.065.12-.066.121-.065.124-.067.127-.066.129-.067.132-.067.134-.067.136-.068.139-.068.141-.068.144-.068.147-.068.149-.068.151-.069.154-.068.157-.068.16-.069.16-.068.165-.069.167-.068.17-.068.171-.068.175-.004.01-.002.006h0l1.049 1.075h0l.006-.002.011-.004.176-.064.174-.064.17-.064.17-.064.165-.064.163-.065.16-.065.16-.064.155-.065.153-.065.15-.064.148-.065.146-.065.143-.064.14-.064.139-.064.135-.064.133-.064.13-.063.129-.064.126-.062.123-.063.12-.062.12-.062.115-.061.114-.061.11-.06.11-.06.106-.06.104-.06.101-.058.1-.058.096-.057.095-.056.092-.056.09-.056.088-.054.085-.054.083-.053.25.21 1.238 1.14.229.233-.046.087-.047.09-.047.091-.048.094-.049.097-.048.098-.05.102-.05.103-.05.106-.05.109-.05.11-.051.114-.052.115-.051.118-.052.12-.052.124-.052.125-.053.128-.052.13-.053.133-.052.136-.053.137-.053.14-.053.144-.052.145-.053.148-.052.15-.053.153-.052.155-.052.158-.052.16-.052.163-.051.165-.051.168-.051.17-.05.174-.05.175-.05.178-.05.181-.003.011-.001.006h0v.001l1.155.959h.001l.006-.003.01-.005.169-.082.165-.082.164-.081.16-.082.158-.081.156-.082.153-.08.15-.081.149-.081.145-.08.143-.08.14-.08.139-.08.135-.079.133-.078.13-.078.129-.078.126-.077.123-.077.12-.076.12-.076.115-.075.114-.075.111-.073.109-.074.106-.072.105-.072.102-.071.099-.07.097-.07.095-.069.093-.067.09-.067.088-.067.086-.065.084-.064.081-.064.08-.062.076-.061.272.182 1.349 1.004.252.208-.037.092-.037.094-.037.096-.038.098-.038.101-.038.104-.038.105-.039.109-.038.11-.04.113-.038.116-.039.118-.039.12-.039.123-.039.125-.039.128-.039.13-.038.133-.039.135-.038.138-.039.14-.038.142-.037.145-.038.148-.037.15-.037.152-.036.155-.037.158-.035.16-.036.162-.035.165-.034.167-.034.17-.033.172-.033.175-.032.178-.031.18-.031.182-.03.184-.002.012-.001.006h0l1.25.834h0l.005-.004.01-.006.16-.1.156-.098.153-.098.152-.098.149-.097.146-.097.144-.097.14-.096.14-.096.136-.095.134-.095.131-.094.13-.093.126-.093.124-.092.121-.091.12-.09.117-.09.114-.09.112-.088.11-.088.108-.087.105-.086.103-.085.1-.084.099-.083.096-.083.094-.08.092-.081.089-.08.087-.078.085-.077.083-.076.08-.075.08-.074.076-.073.074-.071.072-.07.07-.07.29.153 1.446.858.273.18-.027.095-.027.098-.027.1-.028.101-.027.104-.027.107-.027.11-.027.111-.027.114-.027.117-.026.119-.027.12-.026.125-.026.126-.025.129-.026.13-.025.134-.024.136-.024.139-.024.14-.024.144-.023.146-.022.148-.022.15-.021.153-.02.156-.021.158-.02.16-.018.163-.019.165-.017.168-.017.17-.016.172-.015.175-.014.178-.013.18-.013.181-.011.185-.011.187v.012l-.001.005v.001h0l1.33.698h0l.005-.004.01-.007.147-.115.146-.115.142-.114.14-.113.138-.112.136-.112.132-.111.13-.11.129-.11.125-.11.124-.107.12-.107.119-.107.116-.105.114-.105.111-.103.11-.103.107-.102.104-.1.102-.1.1-.099.098-.097.096-.097.094-.095.09-.094.09-.093.087-.092.085-.091.083-.09.08-.088.079-.087.076-.085.075-.085.072-.083.07-.081.069-.08.066-.08.065-.077.062-.076.304.121 1.528.703.29.15-.017.098-.016.1-.017.101-.016.104-.017.107-.015.109-.016.111-.015.114-.015.116-.014.12-.014.12-.014.124-.013.125-.013.129-.012.13-.011.133-.011.136-.01.138-.01.14-.009.142-.008.145-.008.148-.006.15-.006.152-.006.154-.004.157-.004.159-.002.161-.002.164v.505l.003.174.003.176.005.177.005.18.007.183.007.185.01.187V164.423h0l1.396.555h0l.005-.005.008-.008.135-.13.133-.129.13-.128.127-.127.125-.126.123-.126.12-.124.12-.123.115-.123.113-.121.112-.12.109-.12.106-.118.105-.117.102-.116.1-.114.098-.114.096-.112.093-.111.092-.11.089-.109.087-.107.085-.106.083-.105.081-.103.079-.102.077-.1.075-.1.073-.097.07-.096.07-.095.067-.093.065-.092.063-.09.062-.088.06-.087.057-.086.056-.084.055-.082.314.09 1.594.538.304.12-.007.098-.006.101-.006.103-.006.105-.004.108-.005.11-.004.113-.003.114-.002.118-.002.12-.002.121v.38l.003.13.002.134.003.136.005.138.005.14.006.143.007.145.007.148.01.15.01.151.01.154.012.157.013.158.015.161.015.163.017.166.017.167.02.17.02.172.021.174.023.177.025.178.025.181.027.183.029.185.001.012.001.006h0l1.446.406h.001l.004-.005.007-.009.121-.143.118-.142.116-.141.114-.14.111-.139.11-.137.106-.137.105-.135.102-.134.1-.132.099-.131.095-.13.094-.129.092-.127.09-.126.087-.125.085-.123.084-.122.081-.12.08-.119.077-.117.076-.116.073-.114.072-.113.07-.11.067-.11.066-.108.064-.107.063-.104.06-.103.059-.102.057-.1.055-.098.054-.096.052-.094.05-.093.048-.091.047-.09.046-.087.322.056 1.641.37.315.087.004.098.004.1.005.104.005.105.007.108.007.11.008.112.009.115.01.116.01.12.012.12.012.124.013.126.015.128.015.13.016.133.018.135.019.137.02.139.02.141.022.144.023.145.025.148.026.15.027.152.028.155.03.156.03.159.033.16.034.163.035.165.037.167.038.169.04.17.04.174.044.175.044.177.046.179.048.181.003.011.001.006h0v.001l1.48.252h.001l.004-.005.006-.01.105-.155.103-.154.1-.152.099-.15.096-.15.094-.149.092-.146.09-.146.088-.144.086-.142.084-.14.082-.14.08-.138.077-.136.076-.135.074-.133.072-.13.07-.13.069-.129.067-.126.064-.125.063-.123.061-.121.06-.12.057-.118.056-.116.055-.114.052-.112.051-.111.05-.109.048-.107.046-.105.045-.103.043-.102.042-.1.04-.097.039-.095.037-.094.036-.092.326.022 1.671.196.323.054.013.098.015.1.016.101.016.105.018.106.019.109.02.11.02.113.022.115.023.118.024.12.025.12.027.124.027.126.03.128.03.13.03.133.034.134.034.136.035.138.037.14.039.143.04.145.04.146.043.149.045.15.046.153.047.154.049.157.05.158.053.16.054.162.056.164.057.166.059.168.06.17.063.171.065.173.066.175.004.011.002.006h0l1.5.097h0l.003-.006.005-.01.089-.165.086-.164.084-.162.082-.16.08-.16.078-.156.076-.156.074-.154.073-.152.07-.15.069-.15.067-.147.065-.145.063-.143.061-.142.06-.14.058-.138.056-.137.055-.134.053-.133.051-.13.05-.13.048-.127.047-.125.045-.123.043-.121.042-.12.041-.117.04-.116.037-.113.036-.111.035-.11.034-.107.032-.105.032-.104.03-.1.028-.1.027-.097.027-.095.326-.012 1.682.02.327.02.024.095.025.098.026.1.027.102.03.104.029.106.031.108.033.11.033.112.035.114.037.117.038.118.039.12.04.123.043.124.043.126.045.128.047.13.048.132.05.134.051.136.054.138.054.14.057.14.058.144.06.145.06.147.064.148.065.15.067.153.069.154.07.155.073.158.074.159.077.16.078.163.08.164.082.165.085.167.005.01.003.007h0l1.5-.06v-.001h.001l.002-.006.005-.011.07-.173.069-.172.066-.17.065-.168.063-.167.061-.164.06-.163.058-.16.056-.16.054-.157.053-.155.05-.153.05-.151.048-.15.046-.147.045-.146.043-.143.042-.142.04-.14.04-.137.037-.135.036-.134.034-.131.033-.13.032-.127.031-.125.03-.123.028-.12.026-.12.026-.116.025-.115.023-.112.022-.11.022-.109.02-.106.019-.103.018-.102.017-.1.016-.097.324-.046 1.675-.156.326-.014.034.092.035.095.037.096.038.099.04.1.04.103.042.104.044.106.045.108.047.11.048.112.05.114.052.115.053.117.055.12.057.12.058.123.06.125.062.126.063.128.066.13.067.131.069.133.07.135.073.136.075.138.076.14.079.141.08.143.083.144.084.146.087.147.088.15.09.15.093.151.095.154.097.154.1.156.1.158.007.01.003.005h0l1.487-.217h0l.002-.006.003-.012.052-.18.05-.177.048-.176.047-.174.046-.172.043-.17.043-.168.04-.166.04-.164.037-.162.036-.16.035-.158.033-.155.032-.154.03-.152.03-.149.028-.147.027-.145.025-.143.025-.141.023-.139.021-.136.021-.134.02-.132.018-.13.018-.128.016-.125.015-.124.015-.12.013-.12.012-.116.012-.114.01-.112.01-.11.01-.108.007-.105.008-.103.006-.1.006-.099.317-.08 1.65-.33.323-.048.043.088.045.09.047.093.048.094.05.096.05.097.054.1.054.1.056.103.059.105.06.106.061.108.063.11.066.11.067.113.069.115.07.115.073.118.075.12.076.12.079.122.08.124.083.125.084.126.087.128.088.13.091.13.093.133.095.133.097.135.1.136.1.138.104.139.106.14.108.141.11.143.113.143.115.145.117.146.007.01.004.004h0l1.456-.37h0v-.007l.003-.012.033-.184.031-.182.03-.18.028-.179.028-.175.025-.174.025-.171.023-.17.022-.167.02-.165.02-.163.017-.16.017-.158.016-.156.015-.154.013-.152.013-.15.011-.146.01-.145.01-.143.008-.14.008-.138.006-.136.006-.133.005-.131.004-.13.003-.126.002-.124.002-.122V162.601l-.003-.11-.002-.108-.003-.105-.003-.103-.004-.101-.005-.098.307-.113 1.606-.5.317-.083.052.084.054.085.056.087.057.088.06.09.061.092.063.093.065.095.067.096.068.098.07.1.073.1.075.102.076.104.079.105.08.107.083.108.084.109.087.11.089.113.09.113.094.114.095.116.097.117.1.119.101.119.104.12.106.122.109.123.11.124.113.125.115.127.118.127.12.128.122.13.125.13.127.13.129.133.132.133.008.008.004.004h0l1.41-.52h0v-.019l.014-.187.012-.184.011-.183.01-.18.008-.177.008-.176.006-.173.005-.17.004-.169.004-.166.002-.164.001-.161v-.317l-.002-.154-.002-.152-.004-.15-.004-.148-.004-.145-.006-.142-.006-.14-.007-.139-.008-.136-.008-.133-.01-.13-.009-.13-.01-.125-.01-.124-.012-.121-.011-.12-.012-.116-.013-.114-.013-.112-.013-.11-.014-.106-.014-.105-.014-.102-.014-.1-.015-.097.294-.144 1.544-.666.307-.115.06.078.063.079.065.08.066.082.069.084.07.084.072.086.075.088.076.089.079.09.08.091.083.093.085.094.087.095.089.096.09.098.094.099.096.1.098.1.1.103.102.103.104.104.107.105.109.106.111.108.114.108.116.109.118.11.12.11.124.113.125.112.128.114.13.114.133.115.135.116.137.116.14.117.143.118.145.119.009.007.004.004h.001l1.346-.666h0V161.839l-.007-.187-.007-.185-.008-.182-.01-.18-.01-.178-.01-.175-.012-.173-.013-.17-.013-.168-.014-.166-.015-.163-.016-.16-.016-.16-.017-.155-.018-.154-.018-.15-.02-.15-.019-.146-.02-.144-.02-.14-.021-.14-.022-.136-.021-.135-.023-.131-.022-.13-.023-.126-.023-.125-.024-.122-.024-.12-.024-.116-.024-.115-.024-.112-.025-.11-.024-.107-.025-.105-.025-.103-.024-.1-.025-.098-.025-.095.277-.174 1.466-.824.293-.146.069.071.07.072.073.073.074.075.077.076.08.077.08.078.083.079.086.08.087.082.09.082.092.084.094.084.096.086.099.086.1.088.104.088.105.09.108.09.11.09.113.093.114.092.117.094.12.094.122.095.124.096.127.096.129.097.132.098.134.098.136.1.139.099.141.1.144.1.147.101.149.102.151.102.154.102.157.103.01.006.004.003h.001l1.27-.802h0v-.001l-.002-.006-.001-.012-.026-.185-.026-.183-.028-.18-.027-.179-.029-.175-.03-.173-.029-.17-.03-.169-.031-.166-.032-.163-.032-.16-.032-.159-.033-.156-.033-.153-.034-.15-.034-.15-.034-.145-.035-.143-.035-.141-.035-.139-.035-.136-.036-.133-.036-.132-.035-.128-.036-.126-.036-.124-.036-.121-.037-.12-.036-.116-.036-.113-.036-.112-.036-.109-.036-.107-.035-.104-.036-.102-.035-.1-.035-.096-.035-.095-.035-.092.257-.202 1.373-.973.276-.175.075.063.078.064.08.066.082.066.084.067.087.068.088.07.091.07.094.07.095.072.098.073.1.074.102.074.105.075.107.076.11.076.112.077.114.078.116.078.12.08.12.08.125.08.126.08.129.081.13.082.134.082.137.083.138.083.141.083.144.084.146.084.148.085.151.084.154.085.156.085.159.086.161.085.164.086.167.086.01.005.005.003h.001l1.178-.931h0v-.001l-.001-.006-.003-.011-.045-.182-.046-.18-.045-.176-.047-.174-.047-.172-.047-.169-.047-.166-.048-.164-.048-.162-.048-.159-.049-.156-.049-.154-.049-.152-.049-.149-.049-.146-.05-.144-.049-.142-.05-.139-.049-.136-.049-.134-.05-.132-.049-.129-.049-.127-.05-.124-.048-.122-.049-.119-.048-.117-.049-.114-.048-.112-.048-.11-.047-.107-.047-.104-.047-.103-.046-.1-.046-.097-.046-.095-.045-.093-.045-.09-.044-.089.235-.228 1.263-1.11.256-.204.082.055.084.056.086.057.089.057.09.058.094.059.095.06.098.06.1.06.103.062.105.062.107.063.11.063.112.063.114.065.117.064.12.065.12.066.125.065.127.067.129.066.131.067.134.067.137.067.139.068.141.068.144.068.147.068.149.068.151.068.154.069.157.068.159.069.162.068.164.068.167.069.169.068.172.068.174.068.011.004.006.002h0l1.075-1.049h0l-.002-.006-.004-.011-.064-.176-.064-.174-.064-.17-.064-.17-.065-.165-.064-.163-.065-.16-.065-.16-.064-.155-.065-.153-.065-.15-.064-.148-.065-.146-.064-.143-.064-.14-.065-.139-.063-.135-.064-.133-.064-.13-.063-.129-.063-.126-.062-.123-.062-.12-.062-.119-.062-.116-.06-.113-.061-.112-.06-.108-.06-.107-.059-.104-.058-.101-.058-.1-.057-.096-.057-.095-.056-.092-.055-.09-.054-.088-.054-.085-.053-.083.21-.25 1.14-1.238.233-.229.087.047.09.046.09.048.095.047.096.049.1.048.1.05.104.05.106.05.108.05.111.05.113.051.116.052.118.051.12.052.124.052.125.052.128.053.13.052.133.053.135.052.138.053.14.053.143.053.146.052.147.053.15.052.153.053.156.052.158.052.16.052.163.052.165.051.168.051.17.051.174.05.175.05.178.05.18.05.012.003.006.001h0l.96-1.155h0v-.001l-.003-.005-.005-.011-.082-.168-.082-.166-.082-.164-.081-.16-.082-.158-.08-.156-.082-.153-.08-.15-.081-.149-.08-.145-.08-.143-.08-.14-.08-.139-.079-.135-.078-.133-.079-.13-.077-.129-.078-.126-.076-.123-.077-.12-.075-.12-.075-.115-.075-.114-.074-.111-.073-.109-.072-.106-.072-.105-.071-.101-.07-.1-.07-.097-.069-.095-.068-.093-.067-.09-.066-.088-.065-.086-.065-.084-.063-.081-.062-.08-.062-.076.182-.272 1.005-1.349.208-.252.092.037.093.037.096.037.099.038.101.038.103.038.106.038.108.039.11.039.114.038.115.04.118.038.12.039.124.039.125.039.128.039.13.039.133.038.135.039.137.038.14.039.143.038.145.037.147.038.15.037.153.037.155.036.157.037.16.035.163.036.165.035.167.034.17.034.172.033.175.033.177.032.18.031.182.031.185.03.012.002.006.001h0l.833-1.25h0l-.003-.005-.006-.01-.1-.16-.098-.156-.098-.153-.098-.152-.098-.149-.097-.146-.096-.144-.097-.14-.095-.14-.095-.136-.095-.134-.094-.131-.093-.129-.093-.127-.092-.124-.091-.121-.091-.12-.09-.117-.09-.114-.088-.112-.087-.11-.087-.108-.086-.105-.085-.103-.084-.1-.084-.099-.082-.096-.081-.094-.08-.092-.08-.089-.078-.087-.077-.085-.076-.083-.075-.08-.074-.08-.073-.076-.072-.074-.07-.072-.07-.07.154-.29.858-1.446.18-.273.095.027.097.027.1.027.102.028.104.027.107.027.11.027.11.027.115.027.116.027.12.026.12.027.124.026.127.026.128.025.131.026.134.025.136.024.138.025.141.023.143.024.146.023.148.022.151.022.153.021.156.021.158.02.16.02.163.018.165.019.168.017.17.017.172.016.175.015.177.014.18.013.182.013.185.011.187.011h.011l.006.001h.001l.698-1.33h0l-.004-.005-.008-.01-.115-.147-.114-.145-.114-.143-.113-.14-.113-.138-.111-.135-.112-.133-.11-.13-.11-.129-.108-.125-.108-.124-.108-.12-.106-.119-.105-.116-.105-.114-.104-.111-.102-.11-.102-.106-.1-.105-.1-.102-.099-.1-.098-.098-.096-.096-.095-.094-.095-.09-.093-.09-.092-.087-.09-.085-.09-.082-.088-.081-.087-.079-.086-.076-.084-.075-.083-.072-.082-.07-.08-.069-.079-.066-.077-.065-.077-.062.122-.304.702-1.528.151-.29.098.017.099.016.102.017.104.016.107.017.109.015.111.016.114.015.116.015.119.014.12.014.124.014.126.013.128.013.131.012.133.011.136.011.137.01.14.01.143.009.145.008.147.008.15.007.152.006.155.005.157.004.159.004.161.002.164.002h.505l.174-.003.175-.003.178-.004.18-.006.183-.006.185-.008.187-.01H219.593l.555-1.396h0l-.005-.005-.008-.008-.13-.135-.129-.132-.128-.13-.127-.128-.126-.125-.126-.123-.124-.12-.124-.119-.122-.116-.121-.113-.12-.112-.12-.109-.118-.106-.117-.105-.116-.102-.115-.1-.113-.098-.113-.096-.11-.093-.11-.092-.109-.089-.107-.087-.106-.085-.105-.083-.103-.08-.102-.08-.1-.077-.1-.075-.097-.073-.096-.07-.095-.07-.093-.067-.092-.065-.09-.063-.089-.062-.087-.06-.085-.057-.084-.056-.082-.054.09-.315.538-1.594.12-.304.098.007.1.006.104.006.105.006.108.005.11.004.112.004.115.003.117.002.12.002.122.002h.38l.13-.002.134-.003.136-.003.138-.004.14-.006.143-.006.145-.006.147-.008.15-.01.152-.01.154-.01.156-.012.16-.013.16-.015.163-.015.166-.017.167-.017.17-.02.172-.02.174-.021.177-.023.178-.025.18-.025.184-.027.185-.029.011-.001.006-.001h.001l.406-1.446h0v-.001l-.005-.004-.01-.007-.142-.121-.142-.118-.141-.116-.14-.114-.139-.111-.138-.11-.136-.106-.135-.105-.134-.102-.132-.1-.132-.099-.13-.095-.128-.094-.128-.092-.126-.09-.124-.087-.123-.085-.122-.084-.12-.081-.119-.08-.117-.077-.116-.075-.114-.074-.113-.072-.111-.07-.11-.067-.108-.066-.106-.064-.105-.063-.103-.06-.101-.059-.1-.057-.098-.055-.096-.054-.095-.052-.092-.05-.091-.048-.09-.047-.087-.046.056-.322.369-1.641.087-.315.099-.004.1-.004.104-.005.105-.005.108-.007.11-.007.112-.008.114-.009.117-.01.12-.01.12-.011.124-.013.126-.013.128-.015.13-.015.133-.016.135-.018.136-.018.14-.02.14-.021.144-.022.146-.023.148-.025.15-.026.152-.027.154-.028.157-.03.158-.03.161-.033.163-.034.165-.035.167-.037.168-.038.171-.04.173-.04.176-.044.177-.044.179-.046.18-.048.012-.003.006-.001h0l.253-1.48h0v-.001l-.005-.004-.01-.006-.155-.105-.154-.103-.152-.1-.151-.099-.15-.096-.148-.094-.147-.092-.145-.09-.144-.088-.142-.086-.141-.084-.14-.082-.137-.08-.136-.077-.135-.076-.133-.074-.131-.072-.13-.07-.128-.069-.126-.066-.125-.065-.123-.063-.122-.061-.12-.06-.117-.057-.116-.056-.114-.055-.113-.052-.11-.051-.11-.05-.106-.048-.105-.046-.104-.045-.1-.043-.1-.042-.098-.04-.095-.039-.094-.037-.092-.036.022-.326.196-1.671.054-.322.097-.014.1-.015.102-.016.104-.016.107-.018.108-.019.111-.02.113-.02.115-.022.117-.023.12-.024.121-.025.124-.027.126-.027.128-.03.13-.03.132-.03.135-.034.136-.034.138-.035.14-.037.143-.039.145-.04.146-.04.149-.043.15-.045.153-.046.154-.047.156-.049.159-.05.16-.053.162-.054.164-.055.166-.058.168-.059.17-.06.17-.063.174-.065.175-.066.011-.004.006-.002h0l.097-1.5h0l-.006-.003-.01-.005-.166-.088-.163-.087-.162-.084-.16-.082-.16-.08-.157-.078-.155-.076-.154-.074-.152-.073-.15-.07-.15-.069-.147-.067-.145-.065-.144-.063-.141-.061-.14-.06-.139-.058-.136-.056-.135-.055-.132-.053-.131-.051-.13-.05-.126-.048-.125-.047-.123-.045-.122-.043-.119-.042-.117-.041-.116-.04-.113-.037-.112-.036-.109-.035-.107-.034-.106-.032-.103-.032-.101-.03-.1-.028-.096-.027-.095-.027-.013-.326.02-1.682zm-164.834 0C55.17 42.034 97.203 0 149.054 0s93.885 42.034 93.885 93.885c0 51.85-42.034 93.884-93.885 93.884-51.85 0-93.884-42.033-93.884-93.884z" transform="translate(-132 -148) translate(0 148) translate(132.493)"/>
                </g>
            </g>
        </g>
    </g>
</svg>
