<svg xmlns="http://www.w3.org/2000/svg" width="773" height="130" viewBox="0 0 773 130">
    <g fill="none" fill-rule="evenodd">
        <g>
            <g>
                <g transform="translate(-26 -31) translate(26 31.5)">
                    <circle cx="708.25" cy="64.25" r="64.25" fill="#DEEAD8"/>
                    <path fill="#000" fill-rule="nonzero" d="M669.675 66.25v-9.953h-2.051v9.953h2.05zm3.705 0v-5.216c.278-.474.695-.71 1.25-.71.425 0 .728.094.91.283.182.19.273.493.273.913v4.73h1.976v-4.778c-.01-.916-.205-1.604-.588-2.065-.383-.46-.966-.69-1.75-.69-.889 0-1.597.33-2.126.991l-.061-.854h-1.86v7.396h1.976zm11.368 2.844v-3.487c.46.52 1.064.78 1.812.78.88 0 1.578-.343 2.095-1.03.517-.685.776-1.598.776-2.737v-.102c0-1.185-.253-2.115-.76-2.79-.505-.674-1.214-1.011-2.125-1.011-.77 0-1.395.287-1.873.861l-.069-.724h-1.832v10.24h1.976zm1.292-4.3c-.62 0-1.05-.244-1.292-.731v-3.029c.232-.474.659-.71 1.278-.71.465 0 .82.186 1.063.56.244.373.366.904.366 1.593 0 1.544-.472 2.317-1.415 2.317zm6.59 1.456v-4.84c.232-.506.722-.759 1.47-.759.205 0 .442.019.71.055l.028-1.9c-.192-.06-.397-.09-.615-.09-.702 0-1.251.34-1.648 1.02l-.054-.882h-1.867v7.396h1.976zm6.084.137c1.066 0 1.916-.343 2.55-1.03.633-.685.95-1.595.95-2.73l-.014-.506c-.073-1.048-.425-1.878-1.056-2.488-.631-.61-1.446-.916-2.444-.916-.702 0-1.318.157-1.849.471-.53.315-.938.76-1.22 1.333-.283.575-.424 1.229-.424 1.962v.09c0 1.175.318 2.105.954 2.788.635.684 1.486 1.026 2.553 1.026zm0-1.593c-.492 0-.87-.186-1.135-.557-.264-.372-.396-.908-.396-1.61 0-.788.132-1.37.396-1.747.264-.376.638-.564 1.121-.564.488 0 .866.19 1.135.568.269.378.403.911.403 1.6 0 .806-.134 1.393-.403 1.76s-.643.55-1.121.55zm7.294 1.593c.775 0 1.408-.308 1.9-.923l.096.786h1.784v-10.5h-1.982v3.773c-.47-.537-1.064-.806-1.785-.806-.897 0-1.605.342-2.122 1.025-.517.684-.776 1.602-.776 2.755 0 1.221.263 2.175.79 2.86.526.687 1.224 1.03 2.095 1.03zm.506-1.6c-.46 0-.812-.184-1.053-.554-.242-.369-.362-.9-.362-1.592 0-1.545.476-2.318 1.428-2.318.606 0 1.033.258 1.279.773v2.919c-.251.515-.682.772-1.292.772zm7.212 1.6c.86 0 1.535-.297 2.023-.889l.055.752h1.86v-7.396h-1.983v5.236c-.251.465-.711.697-1.381.697-.702 0-1.053-.385-1.053-1.155v-4.778h-1.976V63.7c.01.88.223 1.547.64 2.003.417.456 1.022.684 1.815.684zm8.538 0c.565 0 1.08-.115 1.548-.345.467-.23.835-.554 1.104-.971.269-.417.406-.876.41-1.378h-1.852c-.01.333-.128.6-.356.8-.228.2-.524.3-.889.3-.473 0-.827-.165-1.06-.498-.231-.333-.348-.88-.348-1.64v-.206c0-.752.118-1.295.352-1.63.235-.335.583-.503 1.043-.503.374 0 .674.12.902.36.228.239.347.55.356.932h1.852c-.009-.875-.293-1.575-.85-2.102-.56-.526-1.3-.79-2.226-.79-1.057 0-1.889.34-2.495 1.02-.606.678-.91 1.588-.91 2.727v.13c0 1.185.306 2.113.917 2.785.61.673 1.444 1.009 2.502 1.009zm6.699 0c.41 0 .809-.06 1.196-.178v-1.497c-.168.032-.362.048-.58.048-.297 0-.498-.06-.602-.178-.105-.118-.158-.314-.158-.588v-3.691h1.265v-1.45h-1.265v-1.818h-1.975v1.819h-1.08v1.449h1.08v3.985c.027 1.4.733 2.099 2.119 2.099zm3.315-8.422c.333 0 .6-.096.804-.287.202-.192.304-.438.304-.739 0-.296-.1-.54-.301-.731-.2-.191-.47-.287-.807-.287-.341 0-.611.096-.81.287-.198.191-.297.435-.297.731 0 .301.101.547.304.739.203.191.47.287.803.287zm.992 8.285v-7.396h-1.983v7.396h1.983zm4.826.137c1.066 0 1.916-.343 2.55-1.03.633-.685.95-1.595.95-2.73l-.014-.506c-.073-1.048-.425-1.878-1.056-2.488-.631-.61-1.446-.916-2.444-.916-.702 0-1.318.157-1.85.471-.53.315-.937.76-1.22 1.333-.282.575-.423 1.229-.423 1.962v.09c0 1.175.318 2.105.953 2.788.636.684 1.487 1.026 2.554 1.026zm0-1.593c-.492 0-.87-.186-1.135-.557-.264-.372-.397-.908-.397-1.61 0-.788.133-1.37.397-1.747.264-.376.638-.564 1.121-.564.488 0 .866.19 1.135.568.269.378.403.911.403 1.6 0 .806-.134 1.393-.403 1.76-.27.367-.643.55-1.121.55zm6.651 1.456v-5.216c.278-.474.695-.71 1.251-.71.424 0 .727.094.91.283.182.19.273.493.273.913v4.73h1.975v-4.778c-.009-.916-.205-1.604-.588-2.065-.382-.46-.966-.69-1.75-.69-.888 0-1.597.33-2.126.991l-.061-.854h-1.86v7.396h1.976z"/>
                    <circle cx="547.25" cy="64.25" r="64.25" fill="#DFE3E6"/>
                    <path fill="#000" fill-rule="nonzero" d="M511.891 66.25v-2.31h1.381v-1.033h-1.38v-6.61h-1.348l-4.457 6.897v.745h4.533v2.311h1.271zm-1.271-3.343h-3.097l2.946-4.607.15-.274v4.881zm4.73 3.418c.26 0 .457-.07.591-.212.135-.141.202-.316.202-.526 0-.219-.067-.401-.202-.547-.134-.146-.331-.219-.59-.219-.26 0-.455.073-.585.219-.13.146-.195.328-.195.547 0 .21.065.385.195.526.13.142.324.212.584.212zm7.855-.075v-3.896h2.344c1.126 0 1.99-.261 2.595-.783.603-.522.905-1.266.905-2.232 0-.916-.308-1.652-.926-2.208-.617-.556-1.47-.834-2.56-.834h-3.67v9.953h1.312zm2.358-4.97h-2.358v-3.903h2.433c.652.014 1.165.198 1.538.554.374.355.56.83.56 1.422 0 .624-.186 1.101-.56 1.432-.373.33-.911.495-1.613.495zm6.228 4.97V61c.296-.706.859-1.06 1.688-1.06.223 0 .43.016.622.048v-1.175c-.128-.064-.314-.096-.56-.096-.762 0-1.35.33-1.764.991l-.02-.854h-1.231v7.396h1.265zm6.37.137c.666 0 1.255-.16 1.768-.479.512-.319.907-.764 1.182-1.336.276-.572.414-1.218.414-1.938v-.09c0-1.157-.311-2.084-.933-2.781-.622-.698-1.437-1.046-2.444-1.046-.652 0-1.232.157-1.74.471-.508.315-.904.762-1.19 1.34-.284.58-.426 1.23-.426 1.955v.09c0 1.148.31 2.07.933 2.768.622.697 1.434 1.046 2.437 1.046zm0-1.033c-.637 0-1.147-.248-1.527-.745-.38-.496-.571-1.155-.571-1.975 0-.925.191-1.636.574-2.133.383-.497.887-.745 1.51-.745.639 0 1.15.252 1.536.755.385.504.577 1.161.577 1.972 0 .907-.189 1.613-.567 2.116-.378.504-.889.755-1.531.755zm7.547 1.033c.903 0 1.607-.31 2.113-.93l.061.793h1.162v-10.5h-1.264v3.855c-.506-.592-1.192-.888-2.058-.888-.87 0-1.574.345-2.112 1.035s-.807 1.603-.807 2.738v.096c0 1.13.27 2.046.81 2.748.54.702 1.239 1.053 2.095 1.053zm.315-1.074c-.61 0-1.09-.237-1.436-.71-.346-.474-.52-1.13-.52-1.97 0-.938.174-1.647.52-2.125.347-.479.83-.718 1.45-.718.783 0 1.365.349 1.743 1.046v3.397c-.37.72-.955 1.08-1.757 1.08zm7.383 1.074c.952 0 1.675-.29 2.167-.868l.027.731h1.203v-7.396h-1.264v5.38c-.32.72-.962 1.08-1.928 1.08-.912 0-1.367-.561-1.367-1.682v-4.778h-1.265v4.812c.005.898.213 1.576.625 2.034.413.458 1.013.687 1.802.687zm8.285 0c.501 0 .976-.114 1.425-.342.45-.228.808-.533 1.077-.916.269-.383.415-.786.437-1.21h-1.196c-.036.41-.223.752-.56 1.025-.338.274-.732.41-1.183.41-.652 0-1.153-.23-1.504-.69-.35-.46-.526-1.116-.526-1.969v-.239c0-.875.176-1.544.53-2.006.353-.463.85-.694 1.493-.694.479 0 .88.154 1.207.461.325.308.507.701.543 1.18h1.196c-.036-.793-.329-1.438-.878-1.935-.55-.497-1.238-.745-2.068-.745-.674 0-1.259.155-1.753.465-.495.31-.874.745-1.139 1.305-.264.56-.396 1.201-.396 1.921v.212c0 1.167.297 2.086.892 2.758.595.673 1.396 1.009 2.403 1.009zm6.521 0c.315 0 .638-.046.971-.137v-1.025c-.255.054-.456.082-.601.082-.297 0-.506-.074-.63-.223-.122-.148-.184-.37-.184-.666v-4.587h1.38v-.977h-1.38v-1.791h-1.265v1.79h-1.346v.978h1.346v4.587c0 .629.144 1.114.431 1.456.287.342.713.513 1.278.513zm3.165-8.778c.247 0 .433-.068.561-.205.128-.136.191-.307.191-.512 0-.205-.063-.379-.191-.52-.128-.141-.314-.212-.56-.212-.247 0-.432.07-.558.212-.125.141-.188.315-.188.52 0 .205.063.376.188.512.126.137.311.205.557.205zM572 66.25v-7.396h-1.265v7.396H572zm5.058.137c.665 0 1.255-.16 1.767-.479.513-.319.907-.764 1.183-1.336.276-.572.413-1.218.413-1.938v-.09c0-1.157-.31-2.084-.933-2.781-.622-.698-1.436-1.046-2.444-1.046-.651 0-1.231.157-1.74.471-.507.315-.904.762-1.189 1.34-.285.58-.427 1.23-.427 1.955v.09c0 1.148.311 2.07.933 2.768.622.697 1.435 1.046 2.437 1.046zm0-1.033c-.638 0-1.147-.248-1.528-.745-.38-.496-.57-1.155-.57-1.975 0-.925.19-1.636.574-2.133.383-.497.886-.745 1.51-.745.638 0 1.15.252 1.535.755.385.504.578 1.161.578 1.972 0 .907-.19 1.613-.568 2.116-.378.504-.888.755-1.53.755zm6.214.896v-5.27c.173-.356.415-.643.725-.862.31-.219.67-.328 1.08-.328.506 0 .878.128 1.117.383.24.255.362.65.366 1.182v4.895h1.265v-4.888c-.014-1.763-.802-2.645-2.366-2.645-.911 0-1.65.355-2.214 1.066l-.041-.93h-1.197v7.397h1.265z"/>
                    <circle cx="225.25" cy="64.25" r="64.25" fill="#DFE3E6"/>
                    <path fill="#000" fill-rule="nonzero" d="M200.416 62.25v-1.032h-4.998l2.666-2.892c1.25-1.353 1.874-2.52 1.874-3.5 0-.806-.27-1.452-.807-1.938-.538-.485-1.27-.728-2.194-.728-.99 0-1.779.283-2.37.848-.59.565-.884 1.305-.884 2.221h1.264c0-.638.175-1.135.523-1.493.349-.358.838-.537 1.467-.537.524 0 .943.167 1.257.5.315.332.472.758.472 1.278 0 .387-.097.762-.29 1.124-.194.362-.546.833-1.057 1.412l-3.445 3.828v.909h6.522zm2.276.075c.26 0 .457-.07.591-.212.135-.141.202-.316.202-.526 0-.219-.067-.401-.202-.547-.134-.146-.331-.219-.591-.219-.26 0-.455.073-.585.219-.13.146-.194.328-.194.547 0 .21.065.385.194.526.13.142.325.212.585.212zm9.297-.075c.893-.01 1.676-.203 2.348-.581.672-.378 1.19-.92 1.552-1.627.362-.706.543-1.529.543-2.468v-.636c-.004-.916-.188-1.727-.55-2.433-.362-.706-.876-1.251-1.542-1.634-.665-.383-1.43-.574-2.297-.574h-2.81v9.953h2.756zm-.062-1.073h-1.38v-7.8h1.53c.976.01 1.729.327 2.26.954.53.626.796 1.505.796 2.635v.58c0 1.163-.281 2.058-.844 2.687-.563.63-1.35.944-2.362.944zm9.359 1.21c1.24 0 2.169-.477 2.789-1.429l-.773-.602c-.232.301-.503.543-.813.725-.31.182-.688.273-1.135.273-.629 0-1.147-.224-1.555-.673-.408-.449-.621-1.038-.64-1.767h5.011v-.526c0-1.18-.266-2.088-.8-2.721-.533-.633-1.28-.95-2.242-.95-.587 0-1.133.163-1.637.489-.503.325-.895.777-1.176 1.353-.28.577-.42 1.232-.42 1.965v.233c0 1.103.314 1.983.943 2.642.63.658 1.445.988 2.448.988zm1.62-4.512H219.2c.082-.67.296-1.19.642-1.562.347-.371.775-.557 1.285-.557.53 0 .948.176 1.258.53.31.353.483.85.52 1.493v.096zm5.55 4.375l2.653-7.396h-1.292l-1.832 5.68-1.88-5.68h-1.292l2.68 7.396h.964zm6.85.137c1.24 0 2.17-.477 2.79-1.429l-.773-.602c-.233.301-.504.543-.814.725-.31.182-.688.273-1.134.273-.63 0-1.148-.224-1.556-.673-.408-.449-.62-1.038-.639-1.767h5.01v-.526c0-1.18-.266-2.088-.799-2.721s-1.28-.95-2.242-.95c-.588 0-1.134.163-1.637.489-.504.325-.896.777-1.176 1.353-.28.577-.42 1.232-.42 1.965v.233c0 1.103.314 1.983.943 2.642.629.658 1.445.988 2.447.988zm1.62-4.512h-3.705c.082-.67.296-1.19.643-1.562.346-.371.775-.557 1.285-.557.529 0 .948.176 1.258.53.31.353.483.85.52 1.493v.096zm4.102 4.375v-10.5h-1.265v10.5h1.265zm5.058.137c.666 0 1.255-.16 1.768-.479.512-.319.906-.764 1.182-1.336.276-.572.414-1.218.414-1.938v-.09c0-1.157-.311-2.084-.933-2.781-.622-.698-1.437-1.046-2.444-1.046-.652 0-1.232.157-1.74.471-.508.315-.905.762-1.19 1.34-.284.58-.427 1.23-.427 1.955v.09c0 1.148.311 2.07.933 2.768.622.697 1.435 1.046 2.437 1.046zm0-1.033c-.638 0-1.147-.248-1.527-.745-.38-.496-.571-1.155-.571-1.975 0-.925.191-1.636.574-2.133.383-.497.886-.745 1.51-.745.639 0 1.15.252 1.535.755.386.504.578 1.161.578 1.972 0 .907-.19 1.613-.567 2.116-.379.504-.889.755-1.532.755zm6.214 3.74v-3.562c.515.57 1.222.855 2.12.855.879 0 1.576-.344 2.091-1.033.515-.688.773-1.595.773-2.72v-.116c0-1.194-.259-2.126-.776-2.796-.517-.67-1.22-1.005-2.11-1.005-.915 0-1.63.319-2.146.957l-.061-.82h-1.155v10.24h1.264zm1.737-3.74c-.78 0-1.358-.337-1.737-1.011v-3.534c.383-.68.957-1.019 1.723-1.019.62 0 1.107.242 1.463.725.355.483.533 1.141.533 1.975 0 .948-.179 1.663-.537 2.143-.357.481-.84.721-1.445.721zM210.02 80.387c.47 0 .93-.079 1.384-.236.454-.157.85-.386 1.186-.687l.663.786h1.518l-1.422-1.702c.56-.766.84-1.73.84-2.892h-1.14c0 .725-.156 1.383-.466 1.976l-2.214-2.646.731-.54c.506-.373.86-.73 1.063-1.07.203-.34.304-.71.304-1.11 0-.606-.223-1.109-.67-1.508-.446-.398-1.011-.598-1.695-.598-.766 0-1.372.214-1.818.643-.447.428-.67 1.02-.67 1.777 0 .324.075.65.225.978.15.328.447.76.889 1.298-.752.534-1.261 1-1.528 1.402-.266.4-.4.84-.4 1.32 0 .842.294 1.521.882 2.036.588.515 1.367.773 2.338.773zm-.335-6.207c-.538-.657-.807-1.203-.807-1.64 0-.388.11-.708.329-.961.218-.253.515-.38.888-.38.347 0 .634.102.862.304.227.203.341.457.341.763 0 .282-.057.523-.17.72-.114.2-.326.408-.636.626l-.807.568zm.335 5.174c-.606 0-1.083-.161-1.432-.485-.349-.323-.523-.754-.523-1.292 0-.592.38-1.169 1.142-1.73l.225-.163 2.427 2.905c-.556.51-1.17.765-1.839.765zm12.817.896v-8.873h3.2v-1.08h-7.698v1.08h3.193v8.873h1.305zm6.87.137c1.24 0 2.17-.477 2.79-1.429l-.773-.602c-.232.301-.503.543-.813.725-.31.182-.689.273-1.135.273-.629 0-1.147-.224-1.555-.673-.408-.449-.621-1.038-.64-1.767h5.011v-.526c0-1.18-.266-2.088-.8-2.721-.533-.633-1.28-.95-2.242-.95-.588 0-1.133.163-1.637.489-.503.325-.895.777-1.176 1.353-.28.577-.42 1.232-.42 1.965v.233c0 1.103.314 1.983.943 2.642.63.658 1.445.988 2.448.988zm1.62-4.512h-3.704c.082-.67.296-1.19.642-1.562.346-.371.775-.557 1.285-.557.529 0 .948.176 1.258.53.31.353.483.85.52 1.493v.096zm5.449 4.512c.843 0 1.529-.2 2.057-.598.53-.4.793-.929.793-1.59 0-.396-.094-.732-.283-1.008-.19-.276-.48-.512-.872-.708-.392-.196-.903-.364-1.534-.505-.632-.142-1.068-.29-1.31-.445-.241-.155-.362-.385-.362-.69 0-.324.13-.586.39-.786.26-.2.62-.301 1.08-.301.446 0 .817.125 1.11.376.295.25.442.549.442.895h1.271c0-.674-.26-1.228-.783-1.66-.521-.434-1.202-.65-2.04-.65-.798 0-1.453.21-1.965.629-.513.419-.77.932-.77 1.538 0 .364.09.679.27.943.18.264.459.492.834.684.376.191.885.355 1.525.492.64.137 1.09.3 1.347.489.257.189.386.454.386.796 0 .324-.145.582-.434.776-.29.194-.674.29-1.152.29-.52 0-.938-.124-1.255-.372-.316-.248-.486-.585-.509-1.008h-1.264c0 .437.128.844.386 1.22.257.376.614.669 1.07.878.455.21.98.315 1.572.315zm6.658 0c.315 0 .638-.046.97-.137v-1.025c-.254.054-.455.082-.6.082-.297 0-.507-.074-.63-.223-.123-.148-.184-.37-.184-.666v-4.587h1.38v-.977h-1.38v-1.791h-1.265v1.79h-1.347v.978h1.347v4.587c0 .629.144 1.114.43 1.456.288.342.714.513 1.28.513z"/>
                    <circle cx="386.25" cy="64.25" r="64.25" fill="#DFE3E6"/>
                    <path fill="#000" fill-rule="nonzero" d="M346.028 66.387c.935 0 1.693-.262 2.277-.786.583-.525.875-1.233.875-2.126 0-.58-.15-1.07-.448-1.47-.299-.401-.721-.688-1.268-.861.483-.201.865-.504 1.145-.91.28-.405.42-.824.42-1.257 0-.885-.266-1.575-.8-2.072-.533-.496-1.269-.745-2.208-.745-.888 0-1.62.261-2.197.783s-.865 1.177-.865 1.965h1.265c0-.515.163-.928.488-1.24.326-.313.763-.469 1.31-.469 1.162 0 1.743.584 1.743 1.75 0 .52-.171.932-.513 1.238-.342.305-.811.462-1.408.471h-.95v1.032h.95c.67.01 1.182.169 1.538.479.355.31.533.754.533 1.333 0 .597-.162 1.055-.485 1.374-.324.319-.791.478-1.402.478-.574 0-1.032-.157-1.374-.471-.341-.315-.512-.734-.512-1.258h-1.272c0 .83.293 1.497.879 2.003.585.506 1.345.759 2.28.759zm5.825-.062c.26 0 .456-.07.59-.212.135-.141.203-.316.203-.526 0-.219-.068-.401-.202-.547-.135-.146-.332-.219-.591-.219-.26 0-.455.073-.585.219-.13.146-.195.328-.195.547 0 .21.065.385.195.526.13.142.325.212.585.212zm10.424-.075l3.692-9.953h-1.436l-2.844 8.21-2.83-8.21h-1.428l3.684 9.953h1.162zm7.595.137c1.24 0 2.17-.477 2.79-1.429l-.773-.602c-.233.301-.504.543-.814.725-.31.182-.688.273-1.135.273-.628 0-1.147-.224-1.555-.673-.408-.449-.62-1.038-.639-1.767h5.01v-.526c0-1.18-.266-2.088-.799-2.721s-1.28-.95-2.242-.95c-.588 0-1.134.163-1.637.489-.504.325-.896.777-1.176 1.353-.28.577-.42 1.232-.42 1.965v.233c0 1.103.314 1.983.943 2.642.629.658 1.444.988 2.447.988zm1.62-4.512h-3.705c.082-.67.296-1.19.643-1.562.346-.371.774-.557 1.285-.557.528 0 .948.176 1.258.53.31.353.483.85.52 1.493v.096zm3.992 4.375V61c.297-.706.86-1.06 1.689-1.06.223 0 .43.016.622.048v-1.175c-.128-.064-.315-.096-.56-.096-.762 0-1.35.33-1.764.991l-.02-.854h-1.231v7.396h1.264zm4.225-8.64c.246 0 .433-.069.56-.206.128-.136.192-.307.192-.512 0-.205-.064-.379-.191-.52-.128-.141-.315-.212-.561-.212-.246 0-.432.07-.557.212-.125.141-.188.315-.188.52 0 .205.063.376.188.512.125.137.31.205.557.205zm.622 8.64v-7.396h-1.265v7.396h1.265zm3.719 0v-6.419h1.51v-.977h-1.51v-.643c0-.488.12-.853.359-1.097s.63-.366 1.172-.366c.515 0 1.057.114 1.627.342l.212-1.067c-.78-.278-1.424-.417-1.935-.417-.861 0-1.527.23-2 .69-.47.461-.707 1.104-.707 1.929v.629h-1.169v.977h1.17v6.419h1.27zm3.999 0v-7.396h-1.272v7.396h1.272zm5.024.137c.502 0 .977-.114 1.426-.342.448-.228.807-.533 1.076-.916.27-.383.415-.786.438-1.21h-1.197c-.036.41-.223.752-.56 1.025-.337.274-.732.41-1.183.41-.651 0-1.153-.23-1.504-.69-.35-.46-.526-1.116-.526-1.969v-.239c0-.875.177-1.544.53-2.006.353-.463.85-.694 1.493-.694.479 0 .881.154 1.207.461.326.308.507.701.543 1.18h1.197c-.037-.793-.33-1.438-.879-1.935-.549-.497-1.238-.745-2.068-.745-.674 0-1.259.155-1.753.465-.494.31-.874.745-1.138 1.305-.265.56-.397 1.201-.397 1.921v.212c0 1.167.298 2.086.892 2.758.595.673 1.396 1.009 2.403 1.009zm6.645 0c.816 0 1.517-.306 2.105-.916.046.373.105.633.178.779h1.326v-.11c-.173-.4-.26-.94-.26-1.62v-3.404c-.018-.747-.268-1.334-.752-1.76-.483-.426-1.15-.64-2.002-.64-.538 0-1.032.101-1.48.302-.45.2-.805.472-1.067.816-.262.345-.393.701-.393 1.07h1.272c0-.323.152-.599.458-.827.305-.228.683-.342 1.134-.342.515 0 .905.131 1.17.393.264.262.396.615.396 1.057v.58h-1.23c-1.063 0-1.886.214-2.472.64-.586.426-.878 1.024-.878 1.794 0 .634.233 1.157.7 1.57.467.412 1.066.618 1.795.618zm.184-1.1c-.414 0-.754-.113-1.018-.336-.265-.223-.397-.533-.397-.93 0-.906.775-1.36 2.325-1.36h.99v1.518c-.159.328-.416.594-.772.8-.355.205-.731.307-1.128.307zm7.308 1.1c.314 0 .638-.046.97-.137v-1.025c-.255.054-.455.082-.6.082-.297 0-.507-.074-.63-.223-.123-.148-.184-.37-.184-.666v-4.587h1.38v-.977h-1.38v-1.791H405.5v1.79h-1.347v.978h1.347v4.587c0 .629.144 1.114.43 1.456.288.342.714.513 1.279.513zm3.165-8.778c.246 0 .433-.068.56-.205.128-.136.192-.307.192-.512 0-.205-.064-.379-.191-.52-.128-.141-.315-.212-.561-.212-.246 0-.432.07-.557.212-.125.141-.188.315-.188.52 0 .205.063.376.188.512.125.137.31.205.557.205zm.622 8.641v-7.396h-1.265v7.396h1.265zm5.059.137c.665 0 1.254-.16 1.767-.479.512-.319.907-.764 1.182-1.336.276-.572.414-1.218.414-1.938v-.09c0-1.157-.311-2.084-.933-2.781-.622-.698-1.437-1.046-2.444-1.046-.652 0-1.232.157-1.74.471-.508.315-.904.762-1.19 1.34-.284.58-.426 1.23-.426 1.955v.09c0 1.148.31 2.07.933 2.768.622.697 1.434 1.046 2.437 1.046zm0-1.033c-.638 0-1.148-.248-1.528-.745-.38-.496-.571-1.155-.571-1.975 0-.925.191-1.636.574-2.133.383-.497.887-.745 1.511-.745.638 0 1.15.252 1.535.755.385.504.577 1.161.577 1.972 0 .907-.189 1.613-.567 2.116-.378.504-.889.755-1.531.755zm6.214.896v-5.27c.173-.356.414-.643.724-.862.31-.219.67-.328 1.08-.328.506 0 .879.128 1.118.383.24.255.361.65.366 1.182v4.895h1.264v-4.888c-.013-1.763-.802-2.645-2.365-2.645-.911 0-1.65.355-2.215 1.066l-.04-.93h-1.197v7.397h1.265z"/>
                    <circle cx="64.25" cy="64.25" r="64.25" fill="#DFE3E6"/>
                </g>
                <path fill="#979797" fill-rule="nonzero" d="M145.31 56.32l.435.244 8 4.5.775.436-.775.436-8 4.5-.436.245-.49-.872.436-.245L151.59 62H136v-1h15.591l-6.336-3.564-.436-.245.49-.872zM306.31 56.32l.435.244 8 4.5.775.436-.775.436-8 4.5-.436.245-.49-.872.436-.245L312.59 62H297v-1h15.591l-6.336-3.564-.436-.245.49-.872zM466.31 56.32l.435.244 8 4.5.775.436-.775.436-8 4.5-.436.245-.49-.872.436-.245L472.59 62H457v-1h15.591l-6.336-3.564-.436-.245.49-.872zM628.81 56.32l.435.244 8 4.5.775.436-.775.436-8 4.5-.436.245-.49-.872.436-.245L635.09 62H619.5v-1h15.591l-6.336-3.564-.436-.245.49-.872z" transform="translate(-26 -31) translate(26 31.5)"/>
                <g fill="#000" fill-rule="nonzero">
                    <path d="M5.885 14.25V4.249h-.198l-3.623 1.36v1.149l2.55-.937v8.429h1.271zm4.642.075c.26 0 .457-.07.591-.212.135-.141.202-.316.202-.526 0-.219-.067-.401-.202-.547-.134-.146-.331-.219-.591-.219-.26 0-.455.073-.585.219-.13.146-.194.328-.194.547 0 .21.065.385.194.526.13.142.325.212.585.212zm9.7.062c1.053 0 1.894-.243 2.523-.728.628-.486.943-1.132.943-1.938 0-.506-.113-.946-.339-1.32-.225-.373-.571-.7-1.039-.98-.467-.28-1.114-.537-1.941-.77-.827-.232-1.413-.488-1.757-.769-.344-.28-.516-.623-.516-1.028 0-.506.181-.902.544-1.187.362-.284.867-.427 1.514-.427.697 0 1.237.172 1.62.516.383.344.574.817.574 1.419h1.32c0-.552-.148-1.06-.442-1.525-.294-.464-.708-.829-1.244-1.093-.535-.265-1.145-.397-1.828-.397-1.003 0-1.818.257-2.444.77-.627.512-.94 1.16-.94 1.944 0 .693.256 1.275.769 1.747.513.471 1.332.869 2.457 1.192.898.26 1.518.523 1.86.79.342.267.513.644.513 1.131 0 .488-.185.873-.554 1.156-.37.282-.9.423-1.593.423-.743 0-1.336-.174-1.78-.522-.445-.35-.667-.824-.667-1.426h-1.32c0 .579.161 1.096.482 1.552.322.456.779.815 1.371 1.077s1.23.393 1.914.393zm7.11 0c.314 0 .637-.046.97-.137v-1.025c-.255.054-.456.082-.601.082-.297 0-.506-.074-.63-.223-.122-.148-.184-.37-.184-.666V7.831h1.38v-.977h-1.38V5.062h-1.265v1.792h-1.346v.977h1.346v4.587c0 .629.144 1.114.431 1.456.287.342.713.513 1.278.513zm4.696 0c.815 0 1.517-.306 2.105-.916.046.373.105.633.178.779h1.326v-.11c-.173-.4-.26-.94-.26-1.62V9.117c-.018-.747-.269-1.334-.752-1.76-.483-.426-1.15-.64-2.003-.64-.537 0-1.03.101-1.48.302-.448.2-.804.472-1.066.816-.262.345-.393.701-.393 1.07h1.271c0-.323.153-.599.458-.827.306-.228.684-.342 1.135-.342.515 0 .905.131 1.17.393.264.262.396.615.396 1.057v.58h-1.23c-1.063 0-1.886.214-2.472.64-.586.426-.878 1.024-.878 1.794 0 .634.233 1.157.7 1.57.467.412 1.066.618 1.795.618zm.184-1.1c-.414 0-.754-.113-1.018-.336-.265-.223-.397-.533-.397-.93 0-.906.775-1.36 2.324-1.36h.992v1.518c-.16.328-.417.594-.773.8-.355.205-.731.307-1.128.307zm6.412.963V9c.297-.706.86-1.06 1.689-1.06.223 0 .43.016.622.048V6.812c-.128-.063-.315-.095-.56-.095-.762 0-1.35.33-1.764.991l-.02-.854h-1.231v7.396h1.264zm5.975.137c.314 0 .638-.046.97-.137v-1.025c-.255.054-.455.082-.6.082-.297 0-.507-.074-.63-.223-.123-.148-.184-.37-.184-.666V7.831h1.38v-.977h-1.38V5.062h-1.265v1.792h-1.347v.977h1.347v4.587c0 .629.144 1.114.43 1.456.288.342.714.513 1.279.513zm8.278 0c.953 0 1.675-.29 2.167-.868l.028.731h1.203V6.854h-1.265v5.38c-.319.72-.961 1.08-1.928 1.08-.911 0-1.367-.561-1.367-1.682V6.854h-1.264v4.812c.004.898.213 1.576.625 2.034.412.458 1.013.687 1.801.687zm6.583 2.707v-3.562c.515.57 1.222.855 2.12.855.879 0 1.576-.344 2.091-1.033.515-.688.773-1.595.773-2.72v-.116c0-1.194-.259-2.126-.776-2.796-.517-.67-1.22-1.005-2.109-1.005-.916 0-1.632.319-2.147.957l-.061-.82h-1.155v10.24h1.264zm1.737-3.74c-.78 0-1.358-.337-1.737-1.011V8.809c.383-.68.957-1.019 1.723-1.019.62 0 1.107.242 1.463.725.355.483.533 1.141.533 1.975 0 .948-.179 1.663-.537 2.143-.357.481-.84.721-1.445.721z" transform="translate(-26 -31) translate(26 31.5) translate(31 52)"/>
                </g>
            </g>
        </g>
    </g>
</svg>
