<svg xmlns="http://www.w3.org/2000/svg" width="28" height="29" viewBox="0 0 28 29">
    <g fill="none" fill-rule="evenodd">
        <g>
            <g>
                <g>
                    <path d="M0 0L28 0 28 28 0 28z" transform="translate(-809 -456) translate(661 446.4) translate(148 10)"/>
                    <path fill="#063954" d="M0 14c0-2.522.63-4.855 1.891-7C3.151 4.855 4.855 3.152 7 1.891 9.145.631 11.478 0 14 0c2.522 0 4.855.63 7 1.891 2.145 1.26 3.848 2.964 5.109 5.109C27.369 9.145 28 11.478 28 14c0 2.522-.63 4.855-1.891 7-1.26 2.145-2.964 3.848-5.109 5.109C18.855 27.369 16.522 28 14 28c-2.522 0-4.855-.63-7-1.891-2.145-1.26-3.848-2.964-5.109-5.109C.631 18.855 0 16.522 0 14zM14 1.642c-2.25 0-4.32.553-6.208 1.659-1.888 1.106-3.385 2.613-4.491 4.52-1.106 1.907-1.66 3.976-1.66 6.208 0 2.231.554 4.29 1.66 6.179 1.106 1.888 2.613 3.385 4.52 4.491 1.907 1.106 3.976 1.66 6.208 1.66 2.231 0 4.29-.554 6.179-1.66 1.888-1.106 3.385-2.613 4.491-4.52 1.106-1.907 1.66-3.976 1.66-6.208 0-2.231-.554-4.29-1.66-6.179-1.106-1.888-2.613-3.385-4.52-4.491-1.907-1.106-3.967-1.66-6.179-1.66zm.218 5.473c.053-.052.121-.079.19-.079.068 0 .136.027.188.08l6.21 6.209c.186.186.278.43.278.674 0 .244-.092.489-.279.674l-6.209 6.21c-.052.052-.12.079-.189.079s-.136-.027-.189-.08l-.97-.97c-.047-.047-.074-.11-.077-.175-.004-.074.023-.149.078-.205l4.513-4.515H7.345c-.062 0-.118-.02-.163-.056-.046-.035-.08-.084-.096-.14l-.01-.072v-1.503c0-.072.029-.137.075-.186.048-.052.117-.082.194-.082l10.42-.001-4.515-4.514c-.033-.033-.055-.072-.068-.113-.019-.064-.014-.136.018-.196l.05-.07.97-.969z" transform="translate(-809 -456) translate(661 446.4) translate(148 10)"/>
                </g>
            </g>
        </g>
    </g>
</svg>
