<svg xmlns="http://www.w3.org/2000/svg" width="24" height="25" viewBox="0 0 24 25">
    <g fill="none" fill-rule="evenodd">
        <g>
            <g>
                <g>
                    <g>
                        <path d="M0 0L24 0 24 24 0 24z" transform="translate(-1117 -978) translate(1037 976.9) translate(2 2) translate(78)"/>
                        <path fill="#0C71A7" d="M12 0c2.161 0 4.161.54 6 1.621 1.839 1.08 3.298 2.54 4.379 4.379C23.459 7.839 24 9.839 24 12s-.54 4.161-1.621 6c-1.08 1.839-2.54 3.298-4.379 4.379C16.161 23.459 14.161 24 12 24s-4.161-.54-6-1.621c-1.839-1.08-3.298-2.54-4.379-4.379C.541 16.161 0 14.161 0 12s.54-4.161 1.621-6C2.701 4.161 4.161 2.702 6 1.621 7.839.541 9.839 0 12 0zm0 1.407c-1.929 0-3.703.474-5.32 1.422-1.62.949-2.902 2.24-3.85 3.875-.949 1.634-1.423 3.408-1.423 5.32 0 1.913.474 3.679 1.422 5.297.949 1.618 2.24 2.901 3.875 3.85 1.634.948 3.408 1.422 5.32 1.422 1.913 0 3.679-.474 5.297-1.422 1.618-.949 2.901-2.24 3.85-3.875.948-1.634 1.422-3.408 1.422-5.32 0-1.913-.474-3.679-1.422-5.297-.949-1.618-2.24-2.901-3.875-3.85-1.634-.948-3.4-1.422-5.296-1.422zM11.976 8c.218-.006.439.076.606.247l5.354 5.495c.04.04.061.093.064.147.003.062-.019.124-.064.171l-.853.874c-.043.044-.099.066-.155.066-.056 0-.111-.022-.154-.066L12 10.035l-4.774 4.899c-.043.044-.099.066-.155.066-.055 0-.111-.022-.154-.066l-.852-.874c-.042-.043-.063-.098-.065-.154-.001-.06.02-.12.065-.164l5.354-5.495c.155-.159.355-.241.557-.247z" transform="translate(-1117 -978) translate(1037 976.9) translate(2 2) translate(78)"/>
                    </g>
                </g>
            </g>
        </g>
    </g>
</svg>
