<svg xmlns="http://www.w3.org/2000/svg" width="24" height="25" viewBox="0 0 24 25">
    <g fill="none" fill-rule="evenodd">
        <g>
            <g>
                <g>
                    <g>
                        <path d="M0 0L24 0 24 24 0 24z" transform="translate(-1117 -1054) translate(362 1030.6) translate(753 21.7) translate(2 2)"/>
                        <path fill="#0C71A7" d="M12 1.548c-1.903 0-3.653.468-5.25 1.403S3.887 5.153 2.952 6.75 1.548 10.097 1.548 12s.468 3.653 1.403 5.25 2.202 2.863 3.798 3.798c1.597.935 3.347 1.403 5.25 1.403s3.653-.468 5.25-1.403 2.863-2.202 3.798-3.798c.935-1.597 1.403-3.347 1.403-5.25s-.468-3.653-1.403-5.25-2.21-2.863-3.823-3.798S13.871 1.548 12 1.548zM12 0c2.161 0 4.161.54 6 1.621 1.839 1.081 3.298 2.54 4.379 4.379C23.46 7.839 24 9.839 24 12s-.54 4.161-1.621 6c-1.081 1.839-2.54 3.298-4.379 4.379C16.161 23.46 14.161 24 12 24s-4.161-.54-6-1.621C4.161 21.298 2.702 19.839 1.621 18 .54 16.161 0 14.161 0 12s.54-4.161 1.621-6C2.702 4.161 4.161 2.702 6 1.621 7.839.54 9.839 0 12 0zm-.983 10.599c0-.161.056-.298.17-.411.112-.113.25-.17.41-.17h.826c.161 0 .298.057.411.17.113.113.169.25.169.41L13 18.449c0 .16-.056.297-.169.41-.113.113-.25.17-.41.17h-.824c-.16 0-.298-.057-.41-.17-.114-.113-.17-.25-.17-.41v-7.85zM12 5.574c.368 0 .686.134.955.403.269.269.404.587.404.955 0 .369-.134.686-.404.956-.268.268-.587.403-.955.403s-.686-.134-.955-.403c-.269-.269-.404-.587-.404-.956 0-.368.134-.686.404-.955.269-.27.587-.403.955-.403z" transform="translate(-1117 -1054) translate(362 1030.6) translate(753 21.7) translate(2 2)"/>
                    </g>
                </g>
            </g>
        </g>
    </g>
</svg>
